<svg width="1310" height="179" viewBox="0 0 1310 179" fill="none" xmlns="http://www.w3.org/2000/svg">
<path fill-rule="evenodd" clip-rule="evenodd" d="M203.121 104.957L202.477 108.454L199.937 106.54L203.121 104.957Z" stroke="#C0E2DE" stroke-width="7"/>
<path fill-rule="evenodd" clip-rule="evenodd" d="M209.672 28.2545L204.79 54.7632L185.536 40.2542L209.672 28.2545Z" stroke="#C0E2DE" stroke-width="7"/>
<path fill-rule="evenodd" clip-rule="evenodd" d="M1118.85 20.0501L1131.8 30.7027L1118.1 36.8038L1118.85 20.0501Z" fill="#C0E2DE"/>
<path fill-rule="evenodd" clip-rule="evenodd" d="M882.402 139.832L878.477 161.141L863 149.478L882.402 139.832Z" stroke="#C0E2DE" stroke-width="7"/>
<path fill-rule="evenodd" clip-rule="evenodd" d="M1285.97 125.992L1302.91 139.931L1284.98 147.914L1285.97 125.992Z" stroke="#C0E2DE" stroke-width="7"/>
<path d="M1290.92 29.7335L1283.73 10L1264 17.1824L1271.18 36.916L1290.92 29.7335Z" stroke="#C0E2DE" stroke-width="10"/>
<path d="M107.984 47.8983L88.3076 44.4287L84.8381 64.1055L104.515 67.5751L107.984 47.8983Z" stroke="#C0E2DE" stroke-width="10"/>
<path d="M39.1269 130.519L20.5195 117L7.00047 135.607L25.6079 149.126L39.1269 130.519Z" stroke="#C0E2DE" stroke-width="8"/>
<path d="M403.856 131L390 123L382 136.856L395.856 144.856L403.856 131Z" stroke="#C0E2DE" stroke-width="10"/>
<path d="M1060 123C1062.76 123 1065 120.761 1065 118C1065 115.239 1062.76 113 1060 113C1057.24 113 1055 115.239 1055 118C1055 120.761 1057.24 123 1060 123Z" fill="#C0E2DE"/>
<path d="M122 176C129.18 176 135 170.18 135 163C135 155.82 129.18 150 122 150C114.82 150 109 155.82 109 163C109 170.18 114.82 176 122 176Z" stroke="#C0E2DE" stroke-width="5"/>
<path d="M1133 161C1139.08 161 1144 156.075 1144 150C1144 143.925 1139.08 139 1133 139C1126.92 139 1122 143.925 1122 150C1122 156.075 1126.92 161 1133 161Z" stroke="#C0E2DE" stroke-width="5"/>
</svg>
