<svg width="469" height="386" viewBox="0 0 469 386" fill="none" xmlns="http://www.w3.org/2000/svg">
<g clip-path="url(#clip0)">
<g opacity="0.7">
<path opacity="0.7" d="M36.0076 146.931V141.308H64.0908V167.303C64.0908 168.756 63.5139 170.15 62.4871 171.177C61.4603 172.205 60.0676 172.782 58.6155 172.782H41.483C40.0309 172.782 38.6382 172.205 37.6113 171.177C36.5845 170.15 36.0076 168.756 36.0076 167.303V161.531C34.0708 161.531 32.2132 160.761 30.8436 159.39C29.474 158.02 28.7046 156.161 28.7046 154.223C28.7046 152.285 29.474 150.426 30.8436 149.056C32.2132 147.685 34.0708 146.915 36.0076 146.915V146.931ZM36.0076 158.734V149.737C35.4048 149.717 34.804 149.818 34.241 150.035C33.678 150.251 33.1644 150.579 32.7307 150.999C32.297 151.418 31.9521 151.921 31.7166 152.477C31.481 153.032 31.3596 153.63 31.3596 154.233C31.3596 154.837 31.481 155.434 31.7166 155.99C31.9521 156.546 32.297 157.048 32.7307 157.468C33.1644 157.887 33.678 158.215 34.241 158.432C34.804 158.649 35.4048 158.75 36.0076 158.729V158.734Z" fill="url(#paint0_linear)"/>
</g>
<path d="M36.8893 147.808C38.2078 147.808 39.4967 148.199 40.5929 148.932C41.6892 149.665 42.5436 150.707 43.0482 151.926C43.5528 153.145 43.6848 154.486 43.4276 155.78C43.1704 157.074 42.5354 158.262 41.6031 159.195C40.6708 160.128 39.483 160.763 38.1899 161.021C36.8967 161.278 35.5563 161.146 34.3382 160.641C33.1201 160.136 32.079 159.281 31.3465 158.184C30.614 157.088 30.223 155.798 30.223 154.479C30.223 152.709 30.9253 151.013 32.1755 149.762C33.4257 148.511 35.1213 147.808 36.8893 147.808ZM36.8893 158.585C37.7051 158.585 38.5025 158.343 39.1808 157.89C39.8591 157.436 40.3878 156.791 40.6999 156.037C41.0121 155.283 41.0938 154.453 40.9346 153.653C40.7755 152.852 40.3827 152.117 39.8058 151.54C39.229 150.962 38.4941 150.569 37.694 150.41C36.8939 150.251 36.0646 150.333 35.3109 150.645C34.5573 150.957 33.9131 151.486 33.4599 152.165C33.0067 152.844 32.7648 153.642 32.7648 154.458C32.7648 155.553 33.1993 156.602 33.9728 157.376C34.7463 158.15 35.7954 158.585 36.8893 158.585Z" fill="white"/>
<path opacity="0.1" d="M36.8893 147.808C38.2078 147.808 39.4967 148.199 40.5929 148.932C41.6892 149.665 42.5436 150.707 43.0482 151.926C43.5528 153.145 43.6848 154.486 43.4276 155.78C43.1704 157.074 42.5354 158.262 41.6031 159.195C40.6708 160.128 39.483 160.763 38.1899 161.021C36.8967 161.278 35.5563 161.146 34.3382 160.641C33.1201 160.136 32.079 159.281 31.3465 158.184C30.614 157.088 30.223 155.798 30.223 154.479C30.223 152.709 30.9253 151.013 32.1755 149.762C33.4257 148.511 35.1213 147.808 36.8893 147.808ZM36.8893 158.585C37.7051 158.585 38.5025 158.343 39.1808 157.89C39.8591 157.436 40.3878 156.791 40.6999 156.037C41.0121 155.283 41.0938 154.453 40.9346 153.653C40.7755 152.852 40.3827 152.117 39.8058 151.54C39.229 150.962 38.4941 150.569 37.694 150.41C36.8939 150.251 36.0646 150.333 35.3109 150.645C34.5573 150.957 33.9131 151.486 33.4599 152.165C33.0067 152.844 32.7648 153.642 32.7648 154.458C32.7648 155.553 33.1993 156.602 33.9728 157.376C34.7463 158.15 35.7954 158.585 36.8893 158.585Z" fill="black"/>
<path d="M62.5547 142.675H36.9102V166.406C36.9102 167.74 37.4398 169.019 38.3825 169.962C39.3252 170.906 40.6038 171.436 41.937 171.436H57.5279C58.8611 171.436 60.1397 170.906 61.0824 169.962C62.0251 169.019 62.5547 167.74 62.5547 166.406V142.675Z" fill="white"/>
<path opacity="0.1" d="M41.5292 142.675V166.406C41.5292 167.063 41.6586 167.714 41.9099 168.321C42.1612 168.928 42.5296 169.48 42.994 169.944C43.4584 170.409 44.0097 170.778 44.6165 171.029C45.2232 171.28 45.8735 171.41 46.5303 171.41H43.9524C42.6261 171.41 41.354 170.883 40.4162 169.944C39.4783 169.006 38.9514 167.733 38.9514 166.406V142.675H41.5292Z" fill="black"/>
<path d="M57.5121 123.546C57.732 123.553 57.9477 123.608 58.1437 123.708C58.3398 123.808 58.5114 123.95 58.6464 124.123C58.9815 124.732 58.3731 125.424 57.8163 125.841C56.7852 126.615 55.7076 127.389 55.0064 128.457C54.3053 129.525 54.0887 131.036 54.8518 132.068C55.8468 133.42 58.2288 133.714 58.4608 135.375C58.6103 136.443 57.6874 137.356 56.7491 137.893C54.4393 139.218 51.4593 139.569 49.7888 141.643C49.098 140.219 47.5461 139.394 46.0045 139.064C44.463 138.734 42.8595 138.739 41.2922 138.501C41.034 138.497 40.7805 138.431 40.5529 138.309C40.3252 138.187 40.1297 138.012 39.9827 137.8C39.5444 136.912 40.7921 135.845 40.359 134.957C40.029 134.276 39.0701 134.333 38.3689 134.06C37.2243 133.616 36.7552 132.146 37.08 130.964C37.4048 129.783 38.3225 128.854 39.2866 128.096C41.8645 126.032 45.0095 124.851 48.1699 123.969C49.6393 123.566 51.3665 122.937 52.8926 122.875C54.4187 122.813 56.0376 123.298 57.5121 123.546Z" fill="#EEEEEE"/>
<path d="M237.477 177.477L291.097 344.626" stroke="#E0E0E0" stroke-width="8" stroke-miterlimit="10"/>
<g opacity="0.7">
<path opacity="0.7" d="M195.933 363.45C202.527 363.832 208.405 369.362 208.405 369.362L211.245 362.31L211.477 362.387C210.091 356.31 181.847 230.98 210.121 220.177C231.842 211.876 254.883 201.605 272.939 201.987V172.364H247.629V171.332H227.594C223.753 168.588 229.337 166.689 235.57 165.518C235.315 165.227 235.091 164.911 234.9 164.574L202.811 106.965C202.811 106.965 195.428 94.8309 200.176 89.0271C204.924 83.2233 211.776 103.802 211.776 103.802L238.138 141.787C238.138 141.787 264.772 114.027 281.672 100.227C283.551 98.3639 285.669 96.7607 287.973 95.4603C291.066 93.3709 293.402 92.2824 294.557 92.7106H294.588C297.153 91.9993 299.803 91.6383 302.465 91.6375H304.574V87.3092C299.849 85.7482 295.527 83.1634 291.915 79.7392C288.303 76.3149 285.491 72.1356 283.678 67.499C280.704 62.5693 278.887 57.0281 278.365 51.2933C277.844 45.5586 278.631 39.7802 280.667 34.3942C280.353 34.3563 280.05 34.2507 279.78 34.0847C278.826 33.4708 278.749 32.1243 278.821 30.9894C279.168 27.1881 280.434 23.5284 282.511 20.3267C284.588 17.125 287.413 14.4776 290.741 12.6133C293.412 11.1534 296.475 10.1422 298.444 7.8207C300.135 5.8242 300.847 3.03323 302.899 1.40302C305.332 -0.531574 308.848 -0.201404 311.833 0.665293C315.157 1.62794 318.305 3.11522 321.16 5.071C324.388 7.28417 327.306 10.1267 331.023 11.3546C333.663 12.2264 336.529 12.2058 339.19 13.026C341.23 13.6724 343.092 14.7878 344.624 16.2829C346.157 17.778 347.319 19.6114 348.016 21.6363C348.689 23.8039 348.945 26.0798 348.769 28.3428C350.387 31.0469 351.66 33.9429 352.558 36.9634L353.156 37.2884L352.579 37.0304C354.596 43.842 354.663 51.083 352.773 57.9307C350.883 64.7785 347.111 70.9585 341.886 75.7687C337.757 81.147 332.108 85.1589 325.671 87.2834V92.5197C330.264 93.5108 334.645 95.3062 338.612 97.8231C338.612 97.8231 338.947 98.0294 339.525 98.4215L339.7 98.5401C343.603 101.192 356.678 110.87 356.234 121.332C356.234 121.735 356.234 122.139 356.234 122.545C356.948 125.567 357.31 128.663 357.312 131.769V207.723C357.325 216.112 354.512 224.26 349.326 230.851C360.328 233.317 367.34 237.041 367.34 241.225C367.287 241.567 367.287 241.915 367.34 242.257C367.34 249.686 345.17 255.711 317.778 255.711C314.468 255.711 311.235 255.624 308.106 255.454L277.172 280.505L326.718 360.2C326.718 360.2 343.062 372.86 330.409 377.085C317.757 381.31 291.917 384.473 291.917 384.473C291.917 384.473 287.7 377.085 293.5 373.923C299.3 370.76 307.209 372.339 307.209 372.339L306.178 366.009C306.178 366.009 220.232 292.144 238.158 266.824C241.587 261.98 245.015 256.981 248.47 252.059L234.941 253.292L231.848 369.244L231.461 369.12C232.234 371.4 237.699 388.59 225.583 385.68C212.612 382.585 189.014 371.581 189.014 371.581C189.014 371.581 189.339 363.068 195.933 363.45ZM247.629 163.934L272.939 156.583V134.916L245.433 164.11C246.784 164.002 247.629 163.934 247.629 163.934Z" fill="url(#paint1_linear)"/>
</g>
<path d="M315.329 88.2278C294.828 88.2278 278.208 71.5978 278.208 51.0836C278.208 30.5695 294.828 13.9395 315.329 13.9395C335.83 13.9395 352.45 30.5695 352.45 51.0836C352.45 71.5978 335.83 88.2278 315.329 88.2278Z" fill="black"/>
<path d="M273.052 136.205L244.721 166.297C244.125 166.931 243.388 167.416 242.57 167.712C241.751 168.007 240.875 168.105 240.011 167.998C239.148 167.891 238.322 167.582 237.6 167.095C236.879 166.609 236.282 165.959 235.859 165.198L204.481 108.868L213.246 105.773L239.024 142.917C239.024 142.917 287.421 92.4424 294.19 94.9393C300.96 97.4362 273.052 136.205 273.052 136.205Z" fill="white"/>
<path d="M327.187 240.416L368.948 348.753" stroke="#BDBDBD" stroke-width="5" stroke-miterlimit="10"/>
<path d="M306.564 240.416L264.803 348.753" stroke="#BDBDBD" stroke-width="5" stroke-miterlimit="10"/>
<path d="M316.875 254.345C290.109 254.345 268.411 248.455 268.411 241.189C268.411 233.924 290.109 228.034 316.875 228.034C343.641 228.034 365.339 233.924 365.339 241.189C365.339 248.455 343.641 254.345 316.875 254.345Z" fill="#3E3F49"/>
<path d="M316.875 253.313C290.109 253.313 268.411 247.423 268.411 240.158C268.411 232.892 290.109 227.002 316.875 227.002C343.641 227.002 365.339 232.892 365.339 240.158C365.339 247.423 343.641 253.313 316.875 253.313Z" fill="#535461"/>
<path d="M337.271 264.214L291.545 278.313" stroke="#BDBDBD" stroke-width="5" stroke-miterlimit="10"/>
<path d="M296.485 264.214L342.211 278.313" stroke="#BDBDBD" stroke-width="5" stroke-miterlimit="10"/>
<path d="M316.313 93.8921H301.924C294.266 93.8921 286.922 96.9358 281.508 102.354C276.093 107.772 273.052 115.12 273.052 122.782V199.134H355.543V133.157C355.544 128.001 354.531 122.895 352.56 118.131C350.589 113.368 347.699 109.039 344.056 105.393C340.413 101.747 336.088 98.8545 331.328 96.8811C326.568 94.9078 321.466 93.8921 316.313 93.8921Z" fill="white"/>
<path opacity="0.05" d="M354.43 124.877L303.986 172.855H248.304V165.632L296.253 151.703L337.266 101.022C337.266 101.022 355.894 112.521 354.43 124.877Z" fill="black"/>
<path d="M354.43 123.845L303.986 171.823H248.304V164.6L296.253 150.671L337.266 99.9902C337.266 99.9902 355.894 111.489 354.43 123.845Z" fill="white"/>
<path d="M248.305 164.58C248.305 164.58 221.495 166.643 228.713 171.802H248.305V164.58Z" fill="#FDA57D"/>
<path d="M213.245 105.768C213.245 105.768 206.543 85.6484 201.903 91.3232C197.262 96.998 204.48 108.863 204.48 108.863L213.245 105.768Z" fill="#FDA57D"/>
<path opacity="0.05" d="M355.543 199.144V201.548L273.052 201.723V199.144H355.543Z" fill="black"/>
<path opacity="0.1" d="M288.004 212.042C288.004 212.042 257.585 227.518 253.461 245.059L288.004 212.042Z" fill="black"/>
<path d="M355.543 199.134H273.052V244.016H318.937C328.646 244.016 337.957 240.157 344.821 233.288C351.686 226.419 355.543 217.102 355.543 207.388V199.134Z" fill="#30A6B5"/>
<path d="M291.375 246.885L235.899 251.946L232.878 365.308L213.013 358.838C213.013 358.838 183.301 230.381 211.631 219.548C239.962 208.714 270.587 194.46 288.869 206.083C307.151 217.706 291.375 246.885 291.375 246.885Z" fill="#30A6B5"/>
<path d="M320.484 243.511L277.176 278.591L325.64 356.491L305.532 362.166C305.532 362.166 221.494 289.941 239.024 265.178C256.553 240.415 274.082 211.525 295.736 211.009C317.391 210.494 320.484 243.511 320.484 243.511Z" fill="#30A6B5"/>
<path opacity="0.05" d="M252.429 129.499L241.602 148.071L239.024 142.912L252.429 129.499Z" fill="black"/>
<path d="M325.64 356.491C325.64 356.491 341.623 368.873 329.249 373C316.876 377.127 291.613 380.222 291.613 380.222C291.613 380.222 287.488 373 293.159 369.904C298.831 366.809 306.564 368.357 306.564 368.357L305.533 362.166L325.64 356.491Z" fill="#333333"/>
<path d="M232.414 364.957C232.414 364.957 239.436 384.437 226.743 381.393C214.05 378.349 190.983 367.603 190.983 367.603C190.983 367.603 191.297 359.292 197.747 359.664C204.197 360.035 209.94 365.442 209.94 365.442L212.719 358.544L232.414 364.957Z" fill="#333333"/>
<path d="M303.987 86.164C303.987 80.4656 308.603 75.8462 314.298 75.8462C319.993 75.8462 324.609 80.4656 324.609 86.164V96.4818C324.609 102.18 319.993 106.8 314.298 106.8C308.603 106.8 303.987 102.18 303.987 96.4818V86.164Z" fill="#FDA57D"/>
<path opacity="0.05" d="M314.298 76.8779C317.033 76.8779 319.655 77.965 321.589 79.8999C323.523 81.8349 324.609 84.4593 324.609 87.1958V90.7038C317.912 92.9086 310.684 92.9086 303.987 90.7038V87.1958C303.987 84.4593 305.073 81.8349 307.007 79.8999C308.94 77.965 311.563 76.8779 314.298 76.8779Z" fill="black"/>
<path d="M314.297 91.3231C296.074 91.3231 281.301 76.5409 281.301 58.3061C281.301 40.0713 296.074 25.2891 314.297 25.2891C332.521 25.2891 347.294 40.0713 347.294 58.3061C347.294 76.5409 332.521 91.3231 314.297 91.3231Z" fill="#FDA57D"/>
<path opacity="0.05" d="M347.294 56.8046C347.294 56.8046 339.045 58.93 334.405 49.5511C329.765 40.1723 326.156 35.0546 307.08 40.5953C288.003 46.136 284.168 46.8169 283.25 41.5755C282.621 37.9952 289.406 29.2921 293.768 24.1435C295.892 21.6311 299.361 20.1299 303.048 20.1299H324.609L337.498 26.0987L347.294 34.6264L349.356 46.1411L347.294 56.8046Z" fill="black"/>
<path d="M347.294 55.7728C347.294 55.7728 339.045 57.8983 334.405 48.5194C329.765 39.1405 326.156 34.0229 307.08 39.5635C288.003 45.1042 284.168 45.7852 283.25 40.5437C282.621 36.9634 289.406 28.2604 293.768 23.1118C295.892 20.5994 299.361 19.0981 303.048 19.0981H324.609L337.498 25.067L347.294 33.5947L349.356 45.1094L347.294 55.7728Z" fill="black"/>
<path d="M343.943 62.4332C342.092 62.4332 340.592 59.4305 340.592 55.7266C340.592 52.0227 342.092 49.02 343.943 49.02C345.794 49.02 347.294 52.0227 347.294 55.7266C347.294 59.4305 345.794 62.4332 343.943 62.4332Z" fill="#FDA57D"/>
<path d="M346.341 38.4698C347.104 34.1518 347.857 29.6171 346.465 25.4591C345.783 23.4789 344.647 21.686 343.148 20.224C341.65 18.762 339.829 17.6714 337.834 17.0397C335.256 16.2401 332.431 16.2556 329.848 15.4043C326.213 14.2075 323.362 11.4268 320.201 9.26008C317.41 7.34771 314.331 5.89352 311.081 4.95239C308.163 4.10633 304.724 3.78132 302.342 5.67464C300.341 7.26874 299.645 9.99781 297.99 11.9479C296.062 14.2178 293.072 15.2031 290.458 16.6322C287.202 18.4578 284.439 21.0501 282.41 24.1846C280.38 27.3192 279.145 30.9014 278.811 34.6213C278.724 35.7305 278.811 37.046 279.75 37.6444C280.33 37.9407 280.984 38.0609 281.631 37.9901C294.82 37.7992 308.023 37.6135 321.155 36.4011C325.238 36.0245 329.327 35.5499 333.426 35.7047C339.759 35.9559 345.943 37.7043 351.471 40.8068" fill="black"/>
<g opacity="0.7">
<path opacity="0.7" d="M379.29 267.366C378.44 263.931 378.649 260.318 379.888 257.004C381.128 253.689 383.34 250.827 386.235 248.794C387.782 247.762 389.473 246.973 390.875 245.781C393.226 243.8 394.572 240.875 395.541 237.95C397.872 230.944 398.609 223.087 402.697 216.757C406.42 210.994 413.664 209.307 420.093 208.735C422.433 208.523 424.893 208.415 427.032 209.385C430.616 211.005 432.322 215.24 432.482 219.187C432.642 223.133 431.621 226.997 431.363 230.918C431.105 234.839 431.807 239.172 434.704 241.824C437.602 244.476 441.742 244.801 445.583 245.332C450.611 246.03 455.552 247.258 460.323 248.995C464.329 250.455 468.788 253.086 468.979 257.347C469.134 260.829 466.324 263.61 464.215 266.38C460.271 271.539 458.302 278.396 459.637 284.767C460.998 291.252 465.551 296.818 466.381 303.396C466.592 305.067 466.53 306.842 465.721 308.317C465.078 309.356 464.231 310.253 463.231 310.953C460.756 312.867 457.992 314.405 455.652 316.479C450.769 320.807 448.124 327.085 446.088 333.286C445.892 333.885 445.717 334.488 445.531 335.087H450.331C455.035 335.1 459.542 336.976 462.868 340.304C466.194 343.632 468.069 348.142 468.082 352.849C468.069 357.556 466.194 362.066 462.868 365.394C459.542 368.722 455.035 370.598 450.331 370.611H402.383C397.679 370.598 393.172 368.722 389.846 365.394C386.52 362.066 384.645 357.556 384.632 352.849C384.637 348.129 386.515 343.604 389.851 340.268C393.188 336.932 397.712 335.057 402.429 335.056H415.556C412.462 330.893 409.204 326.982 404.409 325.378C399.614 323.773 393.814 324.717 390.05 321.369C388.215 319.739 387.241 317.325 386.792 314.91C385.997 310.537 386.741 306.024 388.895 302.137C390.406 299.439 392.613 296.978 393.092 293.934C393.5 291.324 392.577 288.677 391.283 286.361C387.658 279.763 381.244 274.64 379.29 267.366Z" fill="url(#paint2_linear)"/>
</g>
<path d="M420.283 212.578C422.511 212.377 424.851 212.274 426.893 213.197C430.301 214.745 431.93 218.774 432.085 222.514C432.24 226.254 431.265 229.948 431.023 233.688C430.78 237.428 431.446 241.54 434.204 244.073C436.962 246.606 440.906 246.905 444.562 247.411C449.351 248.075 454.057 249.244 458.601 250.898C462.416 252.286 466.664 254.798 466.85 258.853C466.994 262.171 464.324 264.817 462.313 267.453C458.554 272.39 456.683 278.896 457.956 284.963C459.255 291.153 463.591 296.441 464.375 302.704C464.576 304.293 464.519 305.985 463.746 307.388C463.134 308.378 462.327 309.233 461.374 309.901C459.018 311.722 456.389 313.187 454.156 315.163C449.516 319.29 446.99 325.264 445.051 331.155C443.145 336.965 441.651 342.902 440.581 348.923C436.575 346.343 431.399 346.385 427.125 344.28C418.025 339.817 414.963 326.879 405.352 323.644C400.805 322.122 395.263 323.015 391.68 319.827C389.932 318.279 389.004 315.978 388.586 313.677C387.83 309.523 388.531 305.235 390.571 301.538C392.009 298.959 394.113 296.637 394.572 293.728C394.964 291.241 394.056 288.723 392.85 286.505C389.396 280.222 383.286 275.346 381.425 268.418C380.611 265.144 380.807 261.699 381.988 258.539C383.169 255.378 385.278 252.65 388.04 250.713C389.499 249.727 391.133 248.979 392.474 247.844C394.716 245.956 395.99 243.17 396.918 240.39C399.14 233.719 399.841 226.234 403.734 220.208C407.265 214.729 414.164 213.12 420.283 212.578Z" fill="#35CC61"/>
<path opacity="0.6" d="M420.35 212.805C420.35 212.805 411.895 326.1 433.879 345.575" stroke="#535461" stroke-miterlimit="10"/>
<path d="M403.44 332.889H449.084C458.418 332.889 465.984 340.46 465.984 349.8V349.805C465.984 359.145 458.418 366.716 449.084 366.716H403.44C394.107 366.716 386.54 359.145 386.54 349.805V349.8C386.54 340.46 394.107 332.889 403.44 332.889Z" fill="white"/>
<path opacity="0.6" d="M466.829 256.779C466.829 256.779 445.221 254.257 418.84 270.316" stroke="#535461" stroke-miterlimit="10"/>
<path opacity="0.6" d="M419.263 283.838C419.263 283.838 407.255 263.966 381.476 260.164" stroke="#535461" stroke-miterlimit="10"/>
<path opacity="0.6" d="M464.716 302.885C464.716 302.885 434.766 297.803 421.006 306.264" stroke="#535461" stroke-miterlimit="10"/>
<path opacity="0.6" d="M422.712 317.872C422.712 317.872 407.033 310.752 389.396 316.535" stroke="#535461" stroke-miterlimit="10"/>
<path d="M169.082 212.129C168.877 212.129 168.68 212.048 168.535 211.903C168.39 211.757 168.309 211.561 168.309 211.355C168.309 211.15 168.39 210.953 168.535 210.808C168.68 210.663 168.877 210.582 169.082 210.582C169.287 210.582 169.484 210.663 169.629 210.808C169.774 210.953 169.855 211.15 169.855 211.355C169.855 211.561 169.774 211.757 169.629 211.903C169.484 212.048 169.287 212.129 169.082 212.129Z" fill="url(#paint3_linear)"/>
<path d="M55.6045 177.477L1.98502 368.403" stroke="#E0E0E0" stroke-width="8" stroke-miterlimit="10"/>
<path d="M1.76822 171.885H291.318V183.172H1.76822V171.885Z" fill="#E0E0E0"/>
<path d="M175.867 169.223H216.597C218.448 169.223 219.948 170.724 219.948 172.576C219.948 174.428 218.448 175.929 216.597 175.929H175.867C174.016 175.929 172.516 174.428 172.516 172.576C172.516 170.724 174.016 169.223 175.867 169.223Z" fill="#535461"/>
<g opacity="0.7">
<path opacity="0.7" d="M87.735 94.4492H176.527C184.562 94.4492 191.076 100.967 191.076 109.008V161.453C191.076 169.494 184.562 176.012 176.527 176.012H87.735C79.6996 176.012 73.1856 169.494 73.1856 161.453V109.008C73.1856 100.967 79.6996 94.4492 87.735 94.4492Z" fill="url(#paint4_linear)"/>
</g>
<path d="M91.1375 95.9507H175.14C182.782 95.9507 188.978 102.15 188.978 109.797V162.16C188.978 169.807 182.782 176.007 175.14 176.007H91.1375C83.495 176.007 77.2996 169.807 77.2996 162.16V109.797C77.2996 102.15 83.495 95.9507 91.1375 95.9507Z" fill="#3E3F49"/>
<path d="M89.5906 95.9507H173.593C181.235 95.9507 187.431 102.15 187.431 109.797V162.16C187.431 169.807 181.235 176.007 173.593 176.007H89.5906C81.9482 176.007 75.7527 169.807 75.7527 162.16V109.797C75.7527 102.15 81.9482 95.9507 89.5906 95.9507Z" fill="#535461"/>
<path d="M126.371 139.043C124.378 139.043 122.762 137.426 122.762 135.432C122.762 133.437 124.378 131.82 126.371 131.82C128.365 131.82 129.98 133.437 129.98 135.432C129.98 137.426 128.365 139.043 126.371 139.043Z" fill="#E0E0E0"/>
</g>
<defs>
<linearGradient id="paint0_linear" x1="46.3964" y1="172.782" x2="46.3964" y2="141.308" gradientUnits="userSpaceOnUse">
<stop stop-color="#808080" stop-opacity="0.25"/>
<stop offset="0.54" stop-color="#808080" stop-opacity="0.12"/>
<stop offset="1" stop-color="#808080" stop-opacity="0.1"/>
</linearGradient>
<linearGradient id="paint1_linear" x1="-91830.7" y1="318133" x2="-91830.7" y2="29296" gradientUnits="userSpaceOnUse">
<stop stop-color="#808080" stop-opacity="0.25"/>
<stop offset="0.54" stop-color="#808080" stop-opacity="0.12"/>
<stop offset="1" stop-color="#808080" stop-opacity="0.1"/>
</linearGradient>
<linearGradient id="paint2_linear" x1="-12780.9" y1="103449" x2="-28572.8" y2="103449" gradientUnits="userSpaceOnUse">
<stop stop-color="#808080" stop-opacity="0.25"/>
<stop offset="0.54" stop-color="#808080" stop-opacity="0.12"/>
<stop offset="1" stop-color="#808080" stop-opacity="0.1"/>
</linearGradient>
<linearGradient id="paint3_linear" x1="-957.086" y1="964.412" x2="-957.086" y2="959.769" gradientUnits="userSpaceOnUse">
<stop stop-color="#808080" stop-opacity="0.25"/>
<stop offset="0.54" stop-color="#808080" stop-opacity="0.12"/>
<stop offset="1" stop-color="#808080" stop-opacity="0.1"/>
</linearGradient>
<linearGradient id="paint4_linear" x1="-76837.5" y1="27921.9" x2="-76837.5" y2="15026.9" gradientUnits="userSpaceOnUse">
<stop stop-color="#808080" stop-opacity="0.25"/>
<stop offset="0.54" stop-color="#808080" stop-opacity="0.12"/>
<stop offset="1" stop-color="#808080" stop-opacity="0.1"/>
</linearGradient>
<clipPath id="clip0">
<rect width="469" height="386" fill="white" transform="matrix(-1 0 0 1 469 0)"/>
</clipPath>
</defs>
</svg>
