<svg width="794" height="653" viewBox="0 0 794 653" fill="none" xmlns="http://www.w3.org/2000/svg">
<g clip-path="url(#clip0)">
<g opacity="0.7">
<path opacity="0.7" d="M60.9596 248.565V239.052H108.503V283.029C108.503 285.487 107.527 287.845 105.788 289.583C104.05 291.321 101.692 292.298 99.2338 292.298H70.2292C67.7708 292.298 65.413 291.321 63.6746 289.583C61.9362 287.845 60.9596 285.487 60.9596 283.029V273.263C57.6805 273.263 54.5357 271.961 52.2171 269.642C49.8984 267.324 48.5958 264.179 48.5958 260.901C48.5958 257.622 49.8984 254.478 52.2171 252.159C54.5357 249.841 57.6805 248.538 60.9596 248.538V248.565ZM60.9596 268.533V253.312C59.939 253.278 58.9219 253.449 57.9688 253.816C57.0157 254.182 56.1462 254.737 55.4119 255.447C54.6777 256.156 54.0938 257.006 53.695 257.946C53.2962 258.886 53.0907 259.897 53.0907 260.918C53.0907 261.939 53.2962 262.95 53.695 263.89C54.0938 264.83 54.6777 265.68 55.4119 266.39C56.1462 267.1 57.0157 267.654 57.9688 268.021C58.9219 268.388 59.939 268.559 60.9596 268.524V268.533Z" fill="url(#paint0_linear)"/>
</g>
<path d="M62.4519 250.048C64.684 250.048 66.866 250.71 68.722 251.95C70.578 253.19 72.0245 254.952 72.8787 257.014C73.7329 259.076 73.9564 261.345 73.5209 263.534C73.0855 265.723 72.0106 267.734 70.4322 269.312C68.8539 270.89 66.8429 271.965 64.6537 272.4C62.4644 272.835 60.1952 272.612 58.133 271.758C56.0707 270.904 54.3081 269.457 53.068 267.602C51.8279 265.746 51.166 263.564 51.166 261.332C51.166 258.339 52.3551 255.469 54.4716 253.353C56.5881 251.237 59.4587 250.048 62.4519 250.048ZM62.4519 268.279C63.833 268.279 65.183 267.87 66.3313 267.103C67.4796 266.335 68.3746 265.245 68.9031 263.969C69.4316 262.694 69.5699 261.29 69.3005 259.935C69.031 258.581 68.366 257.337 67.3895 256.36C66.4129 255.384 65.1687 254.719 63.8142 254.45C62.4596 254.18 61.0556 254.319 59.7797 254.847C58.5038 255.375 57.4132 256.27 56.646 257.418C55.8787 258.567 55.4691 259.917 55.4691 261.297C55.4691 263.149 56.2048 264.925 57.5143 266.234C58.8239 267.544 60.5999 268.279 62.4519 268.279Z" fill="white"/>
<path opacity="0.1" d="M62.4519 250.048C64.684 250.048 66.866 250.71 68.722 251.95C70.578 253.19 72.0245 254.952 72.8787 257.014C73.7329 259.076 73.9564 261.345 73.5209 263.534C73.0855 265.723 72.0106 267.734 70.4322 269.312C68.8539 270.89 66.8429 271.965 64.6537 272.4C62.4644 272.835 60.1952 272.612 58.133 271.758C56.0707 270.904 54.3081 269.457 53.068 267.602C51.8279 265.746 51.166 263.564 51.166 261.332C51.166 258.339 52.3551 255.469 54.4716 253.353C56.5881 251.237 59.4587 250.048 62.4519 250.048ZM62.4519 268.279C63.833 268.279 65.183 267.87 66.3313 267.103C67.4796 266.335 68.3746 265.245 68.9031 263.969C69.4316 262.694 69.5699 261.29 69.3005 259.935C69.031 258.581 68.366 257.337 67.3895 256.36C66.4129 255.384 65.1687 254.719 63.8142 254.45C62.4596 254.18 61.0556 254.319 59.7797 254.847C58.5038 255.375 57.4132 256.27 56.646 257.418C55.8787 258.567 55.4691 259.917 55.4691 261.297C55.4691 263.149 56.2048 264.925 57.5143 266.234C58.8239 267.544 60.5999 268.279 62.4519 268.279Z" fill="black"/>
<path d="M105.902 241.364H62.4871V281.51C62.4871 283.767 63.3837 285.931 64.9797 287.527C66.5756 289.123 68.7402 290.019 70.9973 290.019H97.3921C99.6492 290.019 101.814 289.123 103.41 287.527C105.006 285.931 105.902 283.767 105.902 281.51V241.364Z" fill="white"/>
<path opacity="0.1" d="M70.3078 241.364V281.51C70.3078 282.622 70.5268 283.723 70.9523 284.75C71.3778 285.777 72.0014 286.71 72.7876 287.496C73.5738 288.282 74.5072 288.906 75.5344 289.331C76.5616 289.757 77.6626 289.976 78.7744 289.976H74.4102C72.1647 289.976 70.0112 289.084 68.4234 287.496C66.8356 285.909 65.9436 283.755 65.9436 281.51V241.364H70.3078Z" fill="black"/>
<path d="M97.3658 209.003C97.738 209.015 98.1031 209.108 98.4351 209.277C98.767 209.446 99.0576 209.686 99.286 209.981C99.8534 211.01 98.8234 212.18 97.8808 212.887C96.1351 214.196 94.3108 215.505 93.1237 217.312C91.9367 219.118 91.5701 221.675 92.8619 223.421C94.5465 225.707 98.579 226.205 98.9718 229.015C99.2249 230.822 97.6625 232.366 96.074 233.274C92.1636 235.517 87.1186 236.11 84.2906 239.619C83.121 237.21 80.4937 235.814 77.8839 235.255C75.2741 234.696 72.5595 234.705 69.9061 234.304C69.4689 234.296 69.0399 234.184 68.6544 233.978C68.2689 233.771 67.9381 233.476 67.6891 233.117C66.9472 231.616 69.0594 229.809 68.3262 228.308C67.7676 227.156 66.1441 227.252 64.9571 226.789C63.0194 226.039 62.2251 223.552 62.775 221.553C63.3249 219.554 64.8785 217.984 66.5108 216.701C70.875 213.21 76.1993 211.211 81.5498 209.719C84.0374 209.038 86.9614 207.973 89.5451 207.869C92.1287 207.764 94.8694 208.584 97.3658 209.003Z" fill="#EEEEEE"/>
<path d="M402.041 300.239L492.816 583.006" stroke="#E0E0E0" stroke-width="8" stroke-miterlimit="10"/>
<g opacity="0.7">
<path opacity="0.7" d="M331.707 614.852C342.871 615.498 352.821 624.854 352.821 624.854L357.63 612.924L358.023 613.055C355.675 602.774 307.861 390.751 355.728 372.476C392.5 358.433 431.508 341.057 462.075 341.703V291.59H419.227V289.845H385.308C378.806 285.202 388.258 281.99 398.811 280.009C398.38 279.516 397.999 278.981 397.676 278.412L343.351 180.953C343.351 180.953 330.851 160.426 338.89 150.608C346.929 140.79 358.529 175.603 358.529 175.603L403.158 239.863C403.158 239.863 448.249 192.901 476.861 169.555C480.04 166.403 483.628 163.691 487.527 161.491C492.764 157.957 496.718 156.115 498.673 156.839H498.726C503.069 155.636 507.555 155.025 512.063 155.024H515.633V147.702C507.634 145.061 500.316 140.688 494.201 134.896C488.086 129.103 483.325 122.033 480.256 114.189C475.221 105.849 472.145 96.475 471.262 86.7735C470.379 77.0719 471.711 67.2966 475.159 58.1852C474.626 58.1209 474.114 57.9423 473.657 57.6615C472.043 56.623 471.912 54.3451 472.034 52.4251C472.62 45.9945 474.764 39.8034 478.28 34.387C481.796 28.9706 486.579 24.4919 492.214 21.3382C496.735 18.8683 501.92 17.1577 505.254 13.2304C508.117 9.85293 509.322 5.13141 512.796 2.37356C516.916 -0.899207 522.868 -0.340655 527.922 1.12555C533.549 2.75407 538.879 5.27011 543.712 8.57873C549.176 12.3228 554.116 17.1316 560.409 19.2087C564.878 20.6836 569.731 20.6487 574.235 22.0363C577.69 23.1298 580.841 25.0167 583.436 27.546C586.031 30.0753 587.997 33.1768 589.178 36.6023C590.318 40.2694 590.75 44.1195 590.453 47.9479C593.191 52.5225 595.346 57.4217 596.868 62.5314L597.881 63.0812L596.903 62.6448C600.317 74.168 600.431 86.4176 597.231 98.0021C594.031 109.587 587.646 120.041 578.8 128.179C571.81 137.277 562.246 144.064 551.349 147.658V156.517C559.124 158.193 566.541 161.23 573.258 165.488C573.258 165.488 573.825 165.837 574.803 166.501L575.099 166.701C581.707 171.187 603.842 187.56 603.092 205.259C603.092 205.94 603.092 206.623 603.092 207.31C604.3 212.424 604.912 217.66 604.916 222.914V351.408C604.939 365.599 600.175 379.383 591.395 390.532C610.022 394.704 621.893 401.005 621.893 408.083C621.803 408.662 621.803 409.25 621.893 409.829C621.893 422.396 584.36 432.59 537.986 432.59C532.382 432.59 526.91 432.441 521.612 432.153L469.241 474.534L553.121 609.354C553.121 609.354 580.79 630.771 559.371 637.919C537.951 645.067 494.204 650.416 494.204 650.416C494.204 650.416 487.064 637.919 496.884 632.569C506.703 627.219 520.093 629.89 520.093 629.89L518.347 619.181C518.347 619.181 372.844 494.223 403.193 451.389C408.997 443.194 414.802 434.737 420.65 426.411L397.746 428.497L392.509 624.653L391.855 624.444C393.164 628.301 402.416 657.381 381.904 652.459C359.943 647.222 319.993 628.607 319.993 628.607C319.993 628.607 320.543 614.207 331.707 614.852ZM419.227 277.33L462.075 264.893V228.238L415.509 277.626C417.795 277.443 419.227 277.33 419.227 277.33Z" fill="url(#paint1_linear)"/>
</g>
<path d="M533.84 149.255C499.132 149.255 470.995 121.122 470.995 86.4182C470.995 51.7142 499.132 23.5811 533.84 23.5811C568.548 23.5811 596.685 51.7142 596.685 86.4182C596.685 121.122 568.548 149.255 533.84 149.255Z" fill="black"/>
<path d="M462.267 230.42L414.304 281.327C413.295 282.4 412.047 283.219 410.661 283.719C409.276 284.219 407.792 284.386 406.33 284.204C404.868 284.023 403.47 283.5 402.248 282.677C401.027 281.854 400.016 280.755 399.3 279.468L346.178 184.174L361.017 178.937L404.659 241.774C404.659 241.774 486.593 156.386 498.053 160.61C509.514 164.834 462.267 230.42 462.267 230.42Z" fill="white"/>
<path d="M553.916 406.713L624.616 589.988" stroke="#BDBDBD" stroke-width="5" stroke-miterlimit="10"/>
<path d="M519.002 406.713L448.302 589.988" stroke="#BDBDBD" stroke-width="5" stroke-miterlimit="10"/>
<path d="M536.459 430.277C491.146 430.277 454.412 420.313 454.412 408.022C454.412 395.731 491.146 385.768 536.459 385.768C581.773 385.768 618.506 395.731 618.506 408.022C618.506 420.313 581.773 430.277 536.459 430.277Z" fill="#3E3F49"/>
<path d="M536.459 428.532C491.146 428.532 454.412 418.568 454.412 406.277C454.412 393.986 491.146 384.022 536.459 384.022C581.773 384.022 618.506 393.986 618.506 406.277C618.506 418.568 581.773 428.532 536.459 428.532Z" fill="#535461"/>
<path d="M570.988 446.973L493.576 470.825" stroke="#BDBDBD" stroke-width="5" stroke-miterlimit="10"/>
<path d="M501.938 446.973L579.35 470.825" stroke="#BDBDBD" stroke-width="5" stroke-miterlimit="10"/>
<path d="M535.507 158.838H511.146C498.183 158.838 485.75 163.987 476.583 173.153C467.417 182.318 462.267 194.749 462.267 207.711V336.876H601.922V225.262C601.924 216.54 600.208 207.903 596.871 199.844C593.535 191.785 588.643 184.462 582.476 178.294C576.308 172.126 568.986 167.233 560.927 163.894C552.868 160.556 544.23 158.838 535.507 158.838Z" fill="white"/>
<path opacity="0.05" d="M600.036 211.255L514.637 292.419H420.37V280.201L501.545 256.637L570.979 170.899C570.979 170.899 602.515 190.353 600.036 211.255Z" fill="black"/>
<path d="M600.036 209.51L514.637 290.674H420.37V278.456L501.545 254.892L570.979 169.154C570.979 169.154 602.515 188.608 600.036 209.51Z" fill="white"/>
<path d="M420.371 278.421C420.371 278.421 374.983 281.912 387.203 290.639H420.371V278.421Z" fill="#F7C4A7"/>
<path d="M361.017 178.929C361.017 178.929 349.67 144.892 341.815 154.493C333.959 164.093 346.179 184.166 346.179 184.166L361.017 178.929Z" fill="#F7C4A7"/>
<path opacity="0.05" d="M601.922 336.895V340.961L462.267 341.258V336.895H601.922Z" fill="black"/>
<path opacity="0.1" d="M487.58 358.713C487.58 358.713 436.082 384.895 429.099 414.568L487.58 358.713Z" fill="black"/>
<path d="M601.922 336.877H462.267V412.805H539.95C556.386 412.805 572.149 406.277 583.771 394.656C595.393 383.036 601.922 367.275 601.922 350.841V336.877Z" fill="#002D47"/>
<path d="M493.288 417.657L399.37 426.219L394.255 617.994L360.624 607.05C360.624 607.05 310.322 389.738 358.285 371.411C406.248 353.083 458.095 328.97 489.046 348.633C519.997 368.295 493.288 417.657 493.288 417.657Z" fill="#002D47"/>
<path d="M542.568 411.95L469.25 471.296L551.297 603.079L517.256 612.679C517.256 612.679 374.982 490.496 404.659 448.605C434.336 406.713 464.012 357.84 500.672 356.967C537.331 356.094 542.568 411.95 542.568 411.95Z" fill="#002D47"/>
<path opacity="0.05" d="M427.354 219.075L409.024 250.494L404.66 241.766L427.354 219.075Z" fill="black"/>
<path d="M551.297 603.079C551.297 603.079 578.355 624.025 557.407 631.007C536.458 637.989 493.689 643.225 493.689 643.225C493.689 643.225 486.706 631.007 496.307 625.77C505.909 620.534 519.001 623.152 519.001 623.152L517.256 612.679L551.297 603.079Z" fill="#535461"/>
<path d="M393.47 617.401C393.47 617.401 405.358 650.355 383.868 645.206C362.379 640.057 323.328 621.878 323.328 621.878C323.328 621.878 323.86 607.818 334.78 608.447C345.699 609.075 355.422 618.221 355.422 618.221L360.127 606.553L393.47 617.401Z" fill="#535461"/>
<path d="M514.638 145.764C514.638 136.124 522.453 128.31 532.094 128.31C541.736 128.31 549.551 136.124 549.551 145.764V163.219C549.551 172.859 541.736 180.674 532.094 180.674C522.453 180.674 514.638 172.859 514.638 163.219V145.764Z" fill="#F7C4A7"/>
<path opacity="0.05" d="M532.094 130.056C536.724 130.056 541.164 131.895 544.438 135.168C547.712 138.441 549.551 142.881 549.551 147.51V153.445C538.212 157.175 525.977 157.175 514.638 153.445V147.51C514.638 142.881 516.477 138.441 519.751 135.168C523.024 131.895 527.465 130.056 532.094 130.056Z" fill="black"/>
<path d="M532.095 154.492C501.243 154.492 476.233 129.484 476.233 98.6365C476.233 67.7885 501.243 42.7812 532.095 42.7812C562.946 42.7812 587.957 67.7885 587.957 98.6365C587.957 129.484 562.946 154.492 532.095 154.492Z" fill="#F7C4A7"/>
<path opacity="0.05" d="M587.956 96.0967C587.956 96.0967 573.991 99.6924 566.135 83.826C558.28 67.9596 552.17 59.302 519.875 68.6752C487.579 78.0484 481.085 79.2005 479.532 70.3334C478.467 64.2766 489.953 49.5535 497.338 40.8436C500.934 36.5934 506.808 34.0537 513.049 34.0537H549.551L571.372 44.1513L587.956 58.5776L591.448 78.0572L587.956 96.0967Z" fill="black"/>
<path d="M587.956 94.3515C587.956 94.3515 573.991 97.9472 566.135 82.0808C558.28 66.2145 552.17 57.5569 519.875 66.9301C487.579 76.3033 481.085 77.4553 479.532 68.5883C478.467 62.5315 489.953 47.8084 497.338 39.0985C500.934 34.8483 506.808 32.3086 513.049 32.3086H549.551L571.372 42.4062L587.956 56.8325L591.448 76.312L587.956 94.3515Z" fill="black"/>
<path d="M582.283 105.619C579.15 105.619 576.61 100.539 576.61 94.2733C576.61 88.0073 579.15 82.9277 582.283 82.9277C585.416 82.9277 587.957 88.0073 587.957 94.2733C587.957 100.539 585.416 105.619 582.283 105.619Z" fill="#F7C4A7"/>
<path d="M586.342 65.0802C587.633 57.7754 588.908 50.104 586.551 43.0697C585.397 39.7199 583.474 36.6868 580.937 34.2135C578.399 31.7402 575.318 29.8953 571.94 28.8266C567.575 27.4739 562.792 27.5001 558.419 26.0601C552.266 24.0353 547.439 19.3312 542.088 15.6657C537.362 12.4306 532.15 9.97051 526.648 8.37839C521.707 6.9471 515.886 6.39727 511.853 9.60022C508.466 12.297 507.288 16.9138 504.486 20.2127C501.222 24.0528 496.159 25.7197 491.734 28.1372C486.221 31.2255 481.545 35.611 478.109 40.9137C474.673 46.2165 472.582 52.2767 472.016 58.5696C471.868 60.4459 472.016 62.6714 473.605 63.6838C474.587 64.1851 475.695 64.3883 476.791 64.2685C499.118 63.9456 521.472 63.6314 543.703 61.5805C550.616 60.9434 557.538 60.1405 564.477 60.4023C575.199 60.8273 585.668 63.7851 595.026 69.0337" fill="black"/>
<g opacity="0.7">
<path opacity="0.7" d="M642.125 452.306C640.686 446.494 641.039 440.383 643.137 434.776C645.235 429.168 648.981 424.327 653.882 420.887C656.501 419.142 659.363 417.806 661.738 415.79C665.718 412.439 667.996 407.49 669.637 402.542C673.582 390.69 674.83 377.398 681.752 366.69C688.054 356.941 700.317 354.088 711.202 353.119C715.164 352.761 719.328 352.578 722.95 354.219C729.016 356.959 731.906 364.124 732.176 370.801C732.447 377.477 730.718 384.014 730.282 390.647C729.846 397.279 731.033 404.61 735.938 409.096C740.843 413.582 747.852 414.132 754.355 415.031C762.868 416.211 771.233 418.288 779.31 421.227C786.092 423.697 793.642 428.148 793.965 435.357C794.227 441.248 789.47 445.952 785.9 450.639C779.222 459.366 775.888 470.965 778.149 481.743C780.453 492.713 788.16 502.13 789.566 513.258C789.923 516.085 789.819 519.088 788.448 521.584C787.36 523.341 785.926 524.858 784.233 526.043C780.043 529.281 775.364 531.882 771.402 535.39C763.136 542.713 758.658 553.334 755.21 563.824C754.879 564.836 754.582 565.858 754.268 566.87H762.394C770.357 566.893 777.988 570.066 783.619 575.696C789.249 581.326 792.423 588.956 792.446 596.918C792.423 604.88 789.249 612.51 783.619 618.14C777.988 623.77 770.357 626.944 762.394 626.967H681.219C673.256 626.944 665.626 623.77 659.995 618.14C654.364 612.51 651.19 604.88 651.167 596.918C651.177 588.933 654.355 581.279 660.004 575.635C665.654 569.991 673.312 566.82 681.298 566.818H703.521C698.284 559.775 692.767 553.159 684.65 550.445C676.532 547.731 666.713 549.328 660.341 543.664C657.234 540.906 655.584 536.822 654.825 532.737C653.479 525.339 654.738 517.703 658.386 511.128C660.943 506.564 664.679 502.401 665.491 497.252C666.18 492.836 664.618 488.358 662.427 484.44C656.291 473.277 645.433 464.611 642.125 452.306Z" fill="url(#paint2_linear)"/>
</g>
<path d="M711.525 359.621C715.296 359.28 719.258 359.106 722.715 360.668C728.484 363.286 731.242 370.102 731.504 376.43C731.766 382.757 730.116 389.006 729.706 395.333C729.296 401.661 730.422 408.616 735.092 412.901C739.761 417.187 746.439 417.693 752.627 418.548C760.735 419.671 768.702 421.649 776.395 424.448C782.854 426.795 790.046 431.046 790.36 437.905C790.605 443.517 786.083 447.994 782.679 452.454C776.316 460.806 773.148 471.811 775.304 482.075C777.503 492.547 784.844 501.493 786.17 512.088C786.511 514.776 786.415 517.639 785.106 520.013C784.07 521.687 782.704 523.133 781.091 524.263C777.102 527.344 772.65 529.822 768.871 533.165C761.015 540.147 756.738 550.253 753.456 560.22C750.228 570.048 747.699 580.092 745.889 590.277C739.107 585.913 730.343 585.983 723.107 582.422C707.702 574.873 702.517 552.985 686.247 547.513C678.549 544.938 669.166 546.448 663.099 541.054C660.141 538.436 658.569 534.544 657.862 530.651C656.582 523.623 657.769 516.369 661.223 510.116C663.658 505.752 667.219 501.825 667.996 496.902C668.66 492.696 667.123 488.437 665.081 484.684C659.233 474.054 648.89 465.807 645.739 454.086C644.36 448.547 644.693 442.72 646.692 437.373C648.691 432.026 652.263 427.41 656.937 424.134C659.407 422.467 662.174 421.201 664.444 419.281C668.241 416.087 670.396 411.374 671.968 406.67C675.73 395.386 676.917 382.722 683.507 372.529C689.486 363.26 701.164 360.537 711.525 359.621Z" fill="#1DD7BF"/>
<path opacity="0.6" d="M711.639 360.005C711.639 360.005 697.324 551.667 734.542 584.613" stroke="#535461" stroke-miterlimit="10"/>
<path d="M683.009 563.151H760.282C776.084 563.151 788.894 575.96 788.894 591.76V591.768C788.894 607.568 776.084 620.377 760.282 620.377H683.009C667.207 620.377 654.398 607.568 654.398 591.768V591.76C654.398 575.96 667.207 563.151 683.009 563.151Z" fill="white"/>
<path opacity="0.6" d="M790.325 434.396C790.325 434.396 753.744 430.129 709.081 457.297" stroke="#535461" stroke-miterlimit="10"/>
<path opacity="0.6" d="M709.797 480.172C709.797 480.172 689.468 446.554 645.826 440.122" stroke="#535461" stroke-miterlimit="10"/>
<path opacity="0.6" d="M786.747 512.393C786.747 512.393 736.044 503.797 712.747 518.109" stroke="#535461" stroke-miterlimit="10"/>
<path opacity="0.6" d="M715.636 537.746C715.636 537.746 689.093 525.703 659.233 535.486" stroke="#535461" stroke-miterlimit="10"/>
<path d="M286.249 358.861C285.902 358.861 285.569 358.723 285.324 358.478C285.078 358.232 284.94 357.899 284.94 357.552C284.94 357.205 285.078 356.872 285.324 356.627C285.569 356.381 285.902 356.243 286.249 356.243C286.597 356.243 286.93 356.381 287.175 356.627C287.421 356.872 287.559 357.205 287.559 357.552C287.559 357.899 287.421 358.232 287.175 358.478C286.93 358.723 286.597 358.861 286.249 358.861Z" fill="url(#paint3_linear)"/>
<path d="M94.1362 300.239L3.36048 623.231" stroke="#E0E0E0" stroke-width="8" stroke-miterlimit="10"/>
<path d="M2.99341 290.779H493.191V309.875H2.99341V290.779Z" fill="#E0E0E0"/>
<path d="M297.736 286.275H366.691C369.824 286.275 372.364 288.815 372.364 291.948C372.364 295.081 369.824 297.621 366.691 297.621H297.736C294.603 297.621 292.063 295.081 292.063 291.948C292.063 288.815 294.603 286.275 297.736 286.275Z" fill="#535461"/>
<g opacity="0.7">
<path opacity="0.7" d="M148.532 159.781H298.853C312.457 159.781 323.485 170.808 323.485 184.41V273.132C323.485 286.734 312.457 297.761 298.853 297.761H148.532C134.928 297.761 123.9 286.734 123.9 273.132V184.41C123.9 170.808 134.928 159.781 148.532 159.781Z" fill="url(#paint4_linear)"/>
</g>
<path d="M154.293 162.32H296.505C309.443 162.32 319.932 172.808 319.932 185.745V274.327C319.932 287.264 309.443 297.752 296.505 297.752H154.293C141.354 297.752 130.865 287.264 130.865 274.327V185.745C130.865 172.808 141.354 162.32 154.293 162.32Z" fill="#3E3F49"/>
<path d="M151.674 162.32H293.886C306.825 162.32 317.313 172.808 317.313 185.745V274.327C317.313 287.264 306.825 297.752 293.886 297.752H151.674C138.735 297.752 128.247 287.264 128.247 274.327V185.745C128.247 172.808 138.735 162.32 151.674 162.32Z" fill="#535461"/>
<path d="M213.943 235.22C210.568 235.22 207.833 232.485 207.833 229.111C207.833 225.737 210.568 223.002 213.943 223.002C217.317 223.002 220.053 225.737 220.053 229.111C220.053 232.485 217.317 235.22 213.943 235.22Z" fill="#E0E0E0"/>
</g>
<defs>
<linearGradient id="paint0_linear" x1="78.5474" y1="292.298" x2="78.5474" y2="239.052" gradientUnits="userSpaceOnUse">
<stop stop-color="#808080" stop-opacity="0.25"/>
<stop offset="0.54" stop-color="#808080" stop-opacity="0.12"/>
<stop offset="1" stop-color="#808080" stop-opacity="0.1"/>
</linearGradient>
<linearGradient id="paint1_linear" x1="-155466" y1="538189" x2="-155466" y2="49560.3" gradientUnits="userSpaceOnUse">
<stop stop-color="#808080" stop-opacity="0.25"/>
<stop offset="0.54" stop-color="#808080" stop-opacity="0.12"/>
<stop offset="1" stop-color="#808080" stop-opacity="0.1"/>
</linearGradient>
<linearGradient id="paint2_linear" x1="-21637.6" y1="175006" x2="-48372.7" y2="175006" gradientUnits="userSpaceOnUse">
<stop stop-color="#808080" stop-opacity="0.25"/>
<stop offset="0.54" stop-color="#808080" stop-opacity="0.12"/>
<stop offset="1" stop-color="#808080" stop-opacity="0.1"/>
</linearGradient>
<linearGradient id="paint3_linear" x1="-1620.3" y1="1631.53" x2="-1620.3" y2="1623.67" gradientUnits="userSpaceOnUse">
<stop stop-color="#808080" stop-opacity="0.25"/>
<stop offset="0.54" stop-color="#808080" stop-opacity="0.12"/>
<stop offset="1" stop-color="#808080" stop-opacity="0.1"/>
</linearGradient>
<linearGradient id="paint4_linear" x1="-130083" y1="47235.7" x2="-130083" y2="25421.1" gradientUnits="userSpaceOnUse">
<stop stop-color="#808080" stop-opacity="0.25"/>
<stop offset="0.54" stop-color="#808080" stop-opacity="0.12"/>
<stop offset="1" stop-color="#808080" stop-opacity="0.1"/>
</linearGradient>
<clipPath id="clip0">
<rect width="794" height="653" fill="white" transform="matrix(-1 0 0 1 794 0)"/>
</clipPath>
</defs>
</svg>
