<svg width="924" height="562" viewBox="0 0 924 562" fill="none" xmlns="http://www.w3.org/2000/svg">
<g clip-path="url(#clip0)">
<path d="M762.5 373.52C805.329 373.52 846.404 390.532 876.691 420.815C906.977 451.098 923.995 492.171 924 535V537.5H601V535C601.005 492.171 618.023 451.098 648.309 420.815C678.596 390.532 719.671 373.52 762.5 373.52Z" fill="#1DD7BF"/>
<path d="M161.5 373.52C204.329 373.52 245.404 390.532 275.691 420.815C305.977 451.098 322.995 492.171 323 535V537.5H0V535C0 492.168 17.0151 451.089 47.3023 420.802C77.5894 390.515 118.668 373.5 161.5 373.5V373.52Z" fill="#1DD7BF"/>
<path d="M468.44 92.3301H417.74V141.42H468.44V92.3301Z" fill="url(#paint0_linear)"/>
<path d="M467.57 93.1699H418.61V140.57H467.57V93.1699Z" fill="#F5F5F5"/>
<path d="M537.68 134.64H486.98V183.73H537.68V134.64Z" fill="url(#paint1_linear)"/>
<path d="M536.81 135.49H487.85V182.89H536.81V135.49Z" fill="#F5F5F5"/>
<path d="M614.62 80.79H563.92V129.88H614.62V80.79Z" fill="url(#paint2_linear)"/>
<path d="M613.75 81.6299H564.79V129.03H613.75V81.6299Z" fill="#F5F5F5"/>
<path d="M536.61 0.209961H485.91V49.3H536.61V0.209961Z" fill="url(#paint3_linear)"/>
<path d="M535.75 1.05957H486.79V48.4596H535.75V1.05957Z" fill="#1DD7BE"/>
<path d="M459.89 0H409.19V49.09H459.89V0Z" fill="url(#paint4_linear)"/>
<path d="M459.02 0.849609H410.06V48.2496H459.02V0.849609Z" fill="#002D47"/>
<path d="M390.64 42.3203H339.94V91.4103H390.64V42.3203Z" fill="url(#paint5_linear)"/>
<path d="M389.78 43.1602H340.82V90.5602H389.78V43.1602Z" fill="#1AC2AC"/>
<path d="M321.23 533.25L307 525.36C292.1 517.27 288.56 505.79 288.46 496.93C288.478 495.431 288.589 493.935 288.79 492.45L308.58 414.05C308.58 414.05 330.68 368.26 299.9 354.85C276.21 344.52 219.26 328.52 194.33 321.77C199.97 315.95 203.61 311.43 203.61 311.43L202.94 309.88L203.61 309.06C203.61 309.06 200.69 302.4 196.67 292.47L209.92 280.64C209.92 280.64 209.41 280.55 208.58 280.35L209.13 279.85C209.13 279.85 208.59 279.75 207.7 279.54C216.96 271.46 237.89 251.69 227.28 246.7C217.05 241.88 197.63 257.27 188.99 264.84C188.28 265.11 187.42 265.43 186.42 265.78C185.1 262.11 183.81 258.39 182.57 254.69L199.65 227.75C199.7 227.24 199.73 226.75 199.73 226.28C205 218.88 220.37 195.28 209.12 186.7C196.75 177.24 184.38 207.36 182.52 212.12C181.4 211.98 180.7 211.96 180.7 211.96C179.46 214.44 176.28 216.27 173.52 217.45C173.52 217.21 173.52 216.96 173.52 216.73C173.52 216.5 173.52 216.11 173.57 215.81C173.833 212.797 173.939 209.773 173.89 206.75C173.89 204.96 173.89 203.17 173.75 201.38C173.41 196.55 173.06 190.38 173.01 185C173.01 180.15 173.43 176.38 174.41 175.65L173.66 174.81C173.749 174.235 174.011 173.702 174.41 173.28C174.41 173.28 173.61 172.37 172.31 170.94C174.6 164.36 178.15 154.73 182 146.42L182.82 146.25C183.11 145.65 183.4 145.05 183.69 144.47C190.267 142.769 196.25 139.296 200.988 134.429C205.726 129.561 209.036 123.487 210.559 116.867C212.082 110.248 211.758 103.337 209.622 96.8887C207.487 90.4405 203.623 84.7023 198.45 80.2996C198.877 80.0822 199.274 79.8099 199.63 79.4896C201.63 77.6196 201.78 74.4896 201.76 71.7696C201.76 64.9362 201.727 58.0996 201.66 51.2596C201.66 48.6096 201.66 45.8596 200.49 43.4596C200.037 42.4952 199.386 41.6368 198.58 40.9396C197.981 40.1632 197.194 39.5528 196.292 39.166C195.391 38.7793 194.406 38.629 193.43 38.7296C191.03 39.1196 189.38 41.2495 187.75 43.0595C183.467 47.6758 177.949 50.9663 171.852 52.5403C165.754 54.1143 159.333 53.9058 153.35 51.9396C150.35 50.9396 147.48 49.4196 144.35 49.0696C141.22 48.7196 137.59 49.8996 136.35 52.7996C134.93 56.0296 136.93 59.9196 135.81 63.2696C133.65 69.7696 122.7 68.5896 119.47 74.6296C116.76 79.6996 121.37 85.3395 124.47 90.1695C130.28 99.1695 131.32 110.29 134.34 120.55C135.58 124.78 138.91 134.01 143.6 138.33C144.027 138.79 144.485 139.221 144.97 139.62C144.105 142.981 143.046 146.29 141.8 149.53C139.239 148.911 136.542 149.201 134.17 150.35C127.07 154.3 91.5404 173.24 89.1704 222.97C89.0104 226.38 88.9404 230.02 88.9604 233.84C88.7204 285.41 104.96 372.96 104.96 372.96C104.96 372.96 107.54 370.38 111.73 366.85C118.16 376.14 138.73 389.58 203.63 391.12L269.13 393.52C269.13 393.52 276.23 398.26 266.76 409.31C260.55 416.56 259.76 433.31 259.97 443.99C260.106 451.231 259.354 458.461 257.73 465.52C256.03 472.91 253.9 481.98 252.43 487.52C251.652 487.034 250.901 486.507 250.18 485.94L240.71 548.3H240.82L240.71 549.06C240.71 549.06 310.18 568.79 330.71 554.59C336.22 550.78 338.08 547.53 337.87 544.83C338.43 536.88 321.23 533.25 321.23 533.25Z" fill="url(#paint6_linear)"/>
<path d="M150.27 127.19C150.27 127.19 146.44 160.9 134.18 167.8C121.92 174.7 171 182.35 171 182.35C171 182.35 184.79 138.68 194 134.85C203.21 131.02 150.27 127.19 150.27 127.19Z" fill="#F7C4A7"/>
<path d="M183.21 215.3C183.21 215.3 196.21 180.06 209.26 190.02C222.31 199.98 198.53 230.63 198.53 230.63L183.21 215.3Z" fill="#F7C4A7"/>
<path d="M112 356.28C112 356.28 106.64 386.16 203.94 388.46L267.53 390.76C267.53 390.76 274.43 395.36 265.23 406.08C259.23 413.08 258.44 429.38 258.64 439.74C258.772 446.762 258.043 453.774 256.47 460.62C254.1 470.93 250.85 484.62 249.91 486.53C248.38 489.59 285.91 489.59 285.91 489.59L305.83 410.67C305.83 410.67 327.28 366.23 297.4 353.21C267.52 340.19 183.24 317.97 183.24 317.97L112 356.28Z" fill="#002D47"/>
<path opacity="0.1" d="M274.39 484.23C274.39 484.23 285.08 474.64 288.54 478.29C288.54 478.29 277.45 504.16 304.27 518.71L318.06 526.37C318.06 526.37 347.17 532.5 327.25 546.29C307.33 560.08 239.91 540.93 239.91 540.93L249.1 480.4C249.1 480.4 262.13 491.13 274.39 484.23Z" fill="black"/>
<path d="M274.39 485C274.39 485 285.08 475.41 288.54 479.06C288.54 479.06 277.45 504.93 304.27 519.48L318.06 527.14C318.06 527.14 347.17 533.27 327.25 547.06C307.33 560.85 239.91 541.7 239.91 541.7L249.1 481.17C249.1 481.17 262.13 491.89 274.39 485Z" fill="#535461"/>
<path d="M170.19 221.43C170.19 221.43 179.38 219.13 181.68 214.53C181.68 214.53 201.6 215.3 200.07 229.85L180.15 261.26L170.19 221.43Z" fill="white"/>
<path opacity="0.1" d="M154.86 160.9C154.86 160.9 143.37 153.24 136.47 157.07C129.57 160.9 95.0998 179.29 92.7998 227.52C90.4998 275.75 108.12 370.8 108.12 370.8C108.12 370.8 134.17 344.75 154.86 345.52C175.55 346.29 203.86 311.04 203.86 311.04C203.86 311.04 172.86 240.33 174.69 218.24C175.046 214.347 175.106 210.433 174.87 206.53C174.18 196.62 173.42 180.83 175.51 179.26C175.55 179.29 158.7 160.14 154.86 160.9Z" fill="black"/>
<path d="M154.86 158.6C154.86 158.6 143.37 150.94 136.47 154.77C129.57 158.6 95.0997 176.99 92.7997 225.26C90.4997 273.53 108.13 368.52 108.13 368.52C108.13 368.52 134.18 342.47 154.87 343.24C175.56 344.01 203.87 308.76 203.87 308.76C203.87 308.76 172.87 238.05 174.7 215.96C175.056 212.067 175.116 208.152 174.88 204.25C174.19 194.34 173.43 178.55 175.52 176.98C175.55 176.99 158.7 157.84 154.86 158.6Z" fill="white"/>
<path d="M185.51 269.7C185.51 269.7 213.86 242.12 226.88 248.25C239.9 254.38 203.88 283.49 203.88 283.49L185.51 269.7Z" fill="#F7C4A7"/>
<path opacity="0.1" d="M118.09 219.13C118.09 219.13 127.28 295.75 132.65 300.35C138.02 304.95 154.87 326.4 188.58 300.35L210 281.19C210 281.19 189.31 277.36 192.38 265.87C192.38 265.87 164.8 277.36 160.2 268.17C155.6 258.98 167.1 216.84 167.1 216.84C167.1 216.84 160.97 179.3 143.35 186.19C125.73 193.08 118.09 219.13 118.09 219.13Z" fill="black"/>
<path d="M117.32 218.37C117.32 218.37 126.51 294.99 131.88 299.59C137.25 304.19 154.1 325.64 187.81 299.59L209.26 280.44C209.26 280.44 188.57 276.61 191.64 265.12C191.64 265.12 164.06 276.61 159.46 267.42C154.86 258.23 166.36 216.09 166.36 216.09C166.36 216.09 160.23 178.52 142.61 185.42C124.99 192.32 117.32 218.37 117.32 218.37Z" fill="white"/>
<path opacity="0.1" d="M150.27 128.72C150.27 128.72 151.16 129.87 149.89 136C156.49 143.52 164.76 151.71 175.56 151.71C178.31 151.709 181.051 151.393 183.73 150.77C187.19 143.57 190.83 137.69 193.95 136.39C203.13 132.52 150.27 128.72 150.27 128.72Z" fill="black"/>
<path d="M175.55 150.18C195.438 150.18 211.56 134.058 211.56 114.17C211.56 94.2824 195.438 78.1602 175.55 78.1602C155.662 78.1602 139.54 94.2824 139.54 114.17C139.54 134.058 155.662 150.18 175.55 150.18Z" fill="#F7C4A7"/>
<path opacity="0.1" d="M159.55 130.73C160.14 127.97 160.63 124.78 158.87 122.57C157.87 121.27 156.2 120.57 155.03 119.41C150.95 115.29 154.54 108.31 158.73 104.3C168.311 95.1897 180.596 89.444 193.73 87.9297C195.95 87.6797 198.36 87.4797 200 85.9297C202 84.1097 202.08 81.1097 202.07 78.4397L201.97 58.5397C201.97 55.9697 201.97 53.2997 200.84 50.9697C199.71 48.6397 197.3 46.7397 194.76 47.1497C192.43 47.5297 190.83 49.5997 189.25 51.3597C185.092 55.841 179.736 59.0352 173.818 60.5631C167.899 62.0911 161.666 61.8886 155.86 59.9797C152.96 58.9797 150.16 57.5297 147.11 57.1997C144.06 56.8697 140.55 58.0097 139.31 60.8197C137.93 63.9597 139.87 67.7297 138.79 70.9797C136.69 77.2897 126.06 76.1397 122.93 81.9797C120.3 86.8997 124.77 92.3797 127.8 97.0697C133.44 105.79 134.45 116.6 137.38 126.56C138.93 131.85 143.84 145.19 150.62 146.04C158.67 147.1 158.3 136.63 159.55 130.73Z" fill="black"/>
<path d="M158.79 129.96C159.38 127.2 159.87 124.01 158.11 121.8C157.11 120.5 155.44 119.8 154.27 118.64C150.19 114.52 153.78 107.52 158 103.52C167.581 94.4104 179.866 88.6647 193 87.1504C195.22 86.9004 197.63 86.7004 199.27 85.1504C201.27 83.3304 201.35 80.3304 201.34 77.6604L201.24 57.7604C201.24 55.1904 201.24 52.5204 200.11 50.1904C198.98 47.8604 196.57 45.9604 194.03 46.3704C191.7 46.7504 190.1 48.8204 188.52 50.5804C184.363 55.0617 179.007 58.2559 173.088 59.7838C167.17 61.3118 160.937 61.1093 155.13 59.2004C152.23 58.2004 149.43 56.7504 146.38 56.4204C143.33 56.0904 139.82 57.2304 138.58 60.0404C137.2 63.1804 139.14 66.9504 138.06 70.2004C135.96 76.5104 125.33 75.3604 122.2 81.2004C119.57 86.1204 124.04 91.6004 127.07 96.2904C132.71 105.01 133.72 115.82 136.65 125.78C138.2 131.07 143.11 144.41 149.89 145.26C157.9 146.33 157.53 135.86 158.79 129.96Z" fill="#333333"/>
<path d="M236.893 149.322L189.029 159.627L199.006 205.965L246.869 195.66L236.893 149.322Z" fill="#D2F7F2"/>
<path d="M842.38 181.52C841.38 177.26 839.38 173.29 837.94 169.15C835.968 163.15 834.956 156.876 834.94 150.56C834.94 140.3 836.74 129.83 838.39 119.65C839.76 111.18 840.93 102.38 840.8 93.7904C840.8 84.8404 839.41 76.0904 835.4 68.1204C830.97 59.3204 822.68 51.7904 812.86 51.1204C803.52 50.4904 794.86 55.9804 785.66 57.4504C776.46 58.9204 767.24 56.3904 758.03 57.0604C749.256 57.7203 740.94 61.2323 734.35 67.0604C729.3 71.5704 725.29 77.7804 725.21 84.5604C725.21 84.8104 725.21 85.0504 725.21 85.2904C725.21 85.5304 725.21 85.6104 725.21 85.7804C725.09 96.2104 733 99.9304 742 101.52C741.275 106.332 741.515 111.24 742.706 115.959C743.898 120.677 746.016 125.11 748.939 129.001C751.862 132.892 755.53 136.162 759.73 138.62C763.929 141.079 768.576 142.677 773.4 143.32C773.84 144.114 774.266 144.924 774.68 145.75C774.78 147.03 774.85 148.31 774.86 149.6C774.728 156.58 773.219 163.465 770.42 169.86C768.568 171.038 766.575 171.978 764.49 172.66L741.33 199.52C738.981 201.725 736.921 204.218 735.2 206.94C734.426 207.374 733.65 207.797 732.87 208.21L734.22 208.56L734.11 208.76L732.88 209.43L733.63 209.63C730.994 214.398 729.652 219.773 729.74 225.22C729.694 230.323 730.954 235.352 733.4 239.83C734.986 242.92 736.359 246.114 737.51 249.39L729.74 261.82L703.48 300.72L683.31 304.52C678.793 303.973 674.226 303.973 669.71 304.52L673.87 296.67C673.995 296.434 674.071 296.174 674.094 295.908C674.116 295.641 674.086 295.372 674.003 295.118C673.92 294.863 673.787 294.628 673.611 294.426C673.436 294.224 673.222 294.059 672.981 293.941C672.741 293.823 672.479 293.755 672.212 293.74C671.945 293.725 671.677 293.764 671.425 293.854C671.173 293.945 670.942 294.085 670.745 294.266C670.549 294.448 670.39 294.667 670.28 294.91L664.73 305.38C658.44 306.81 651.86 309.73 647.28 315.52C642.28 321.81 647.28 323.94 654.69 324.32L653.92 325.76C653.753 326.104 653.687 326.488 653.732 326.867C653.776 327.246 653.928 327.605 654.17 327.9C653.23 328.16 652.17 328.45 651.17 328.78H634.38V336.73C629.57 340.12 625.44 344.52 623.38 350.18C609.98 361.54 608.84 383.32 608.84 383.32L566 508.52C566 508.52 565.07 509.91 563.67 512.17C551.92 519.62 528.52 548.92 534.67 561.03L560.45 547.95L561.12 548.23L563 546.66L615 520.31L603.47 497.03L601.87 497.63C601.4 495.29 601.59 493.13 603.33 492.04C606.16 490.27 624.2 455.84 638.85 427.23C643.97 442.53 654.65 478.1 649.64 495.39L647.73 496.82C638.66 505.32 622.62 542.82 632.32 553.13L658.38 528.7L678.46 510.37L678.85 509.52L697.95 491.52L680.37 472.4L677.63 474.4C676.04 469.7 672.74 459.07 674.16 455.31C675.58 451.55 679.3 413.66 673.53 387.72L677.67 387.44C692.04 406.2 709.41 422.89 714.47 424.16C714.968 424.278 715.485 424.295 715.99 424.21C725.83 425.79 743.79 386.29 743.79 386.29H793.87C837.96 379.99 830.66 344.54 821.8 322.99C822.07 323.12 822.33 323.25 822.58 323.38C822.58 323.38 822.48 322.91 822.3 322.02L822.58 322.16C819.918 308.611 818.548 294.839 818.49 281.03C818.457 271.417 819.324 261.822 821.08 252.37C824.56 258.47 829.94 263.63 836.78 264.48C840.477 242.32 842.675 219.936 843.36 197.48C843.36 195.89 843.44 194.3 843.44 192.71C843.548 188.951 843.192 185.193 842.38 181.52ZM713.23 320.66L715.84 317.66C727.84 316.01 740.22 314.08 748.45 312.18C745.611 316.018 741.983 319.203 737.81 321.52C731.55 321.16 722.8 320.74 713.23 320.66ZM744.14 285.6L741.33 293.52L736.33 294.52L744.14 285.6ZM659.14 324.37C663.826 324.202 668.5 323.774 673.14 323.09L672.87 323.32C669.108 323.975 665.408 324.945 661.81 326.22C661.81 326.22 660.26 326.44 657.81 327.01L659.14 324.37Z" fill="url(#paint7_linear)"/>
<path d="M656.13 327.59C655.903 327.479 655.701 327.324 655.534 327.135C655.367 326.946 655.239 326.726 655.157 326.487C655.076 326.248 655.042 325.996 655.058 325.744C655.073 325.492 655.139 325.246 655.25 325.02L671 295.35C671.111 295.123 671.265 294.92 671.454 294.754C671.644 294.587 671.864 294.459 672.103 294.377C672.341 294.295 672.594 294.261 672.845 294.277C673.097 294.293 673.343 294.358 673.57 294.47C673.796 294.58 673.999 294.735 674.166 294.924C674.333 295.113 674.461 295.334 674.542 295.572C674.624 295.811 674.658 296.063 674.642 296.315C674.626 296.567 674.561 296.813 674.45 297.04L658.7 326.71C658.589 326.936 658.435 327.139 658.245 327.306C658.056 327.472 657.836 327.6 657.597 327.682C657.359 327.764 657.106 327.798 656.854 327.782C656.603 327.766 656.356 327.701 656.13 327.59Z" fill="#4D8AF0"/>
<path d="M662.85 325.45C662.85 325.45 620.08 331.62 624.78 360.98L638.29 415.6C638.29 415.6 658.29 469.04 650.62 489.6C650.62 489.6 642.99 522.49 635.35 521.31C627.71 520.13 651.79 527.18 651.79 527.18L678.79 502.51L687 484.3C687 484.3 689.35 479.01 678.78 470.21C678.78 470.21 672.91 454.35 674.67 449.66C676.43 444.97 681.67 387.52 667.32 367.79L662.85 325.45Z" fill="#BE7C5E"/>
<path opacity="0.1" d="M662.85 325.45C662.85 325.45 620.08 331.62 624.78 360.98L638.29 415.6C638.29 415.6 658.29 469.04 650.62 489.6C650.62 489.6 642.99 522.49 635.35 521.31C627.71 520.13 651.79 527.18 651.79 527.18L678.79 502.51L687 484.3C687 484.3 689.35 479.01 678.78 470.21C678.78 470.21 672.91 454.35 674.67 449.66C676.43 444.97 681.67 387.52 667.32 367.79L662.85 325.45Z" fill="black"/>
<path d="M634.45 543.63L697.59 484.44L680.68 466.05L649.26 489.52C640.54 497.69 625.11 533.71 634.45 543.67V543.63Z" fill="#F5F5F5"/>
<path d="M745.17 321.63C745.17 321.63 681.75 315.76 659.43 326.92C659.43 326.92 657.67 336.32 667.06 347.47C676.45 358.62 745.17 321.63 745.17 321.63Z" fill="#333333"/>
<path opacity="0.3" d="M745.17 321.63C745.17 321.63 681.75 315.76 659.43 326.92C659.43 326.92 657.67 336.32 667.06 347.47C676.45 358.62 745.17 321.63 745.17 321.63Z" fill="black"/>
<path d="M697.52 327.93H636.46V336.46H697.52V327.93Z" fill="#E0E0E0"/>
<path d="M675.29 339.25C675.29 339.25 641.23 336.9 627.13 347.47C613.03 358.04 611.86 380.36 611.86 380.36L570.75 500.75C570.75 500.75 558 519.87 556.07 531.29C555.48 534.81 566.07 538.92 566.07 538.92L601.89 508.92L608.89 498.92C608.89 498.92 601.89 487.76 606.54 484.83C611.19 481.9 659.39 385.58 659.39 385.58L721.09 381.52L675.29 339.25Z" fill="#BE7C5E"/>
<path opacity="0.1" d="M807.42 306.36C807.42 306.36 850.29 374.48 788.63 383.29H740.47C740.47 383.29 722.85 422.05 713.47 419.7C704.09 417.35 650.63 359.8 658.85 339.24L734.61 321.62C734.61 321.62 748.7 315.16 749.88 302.24L807.42 306.36Z" fill="black"/>
<path d="M808.6 306.36C808.6 306.36 851.47 374.52 789.8 383.29H741.65C741.65 383.29 724.03 422.05 714.65 419.7C705.27 417.35 651.8 359.8 660 339.25L735.76 321.63C735.76 321.63 749.85 315.17 751.03 302.25L808.6 306.36Z" fill="#333333"/>
<path d="M540.62 551.23L617.8 512.07L606.71 489.69L570 503.39C559.34 508.8 534.45 539.06 540.63 551.23H540.62Z" fill="#F5F5F5"/>
<path d="M742.82 240L728.14 263.52L692.9 315.79C692.9 315.79 664.12 316.96 667.65 339.87C671.18 362.78 705.23 328.12 705.23 328.12L762.23 263.52L742.82 240Z" fill="#BE7C5E"/>
<path opacity="0.1" d="M742.82 240L728.14 263.52L692.9 315.79C692.9 315.79 664.12 316.96 667.65 339.87C671.18 362.78 705.23 328.12 705.23 328.12L762.23 263.52L742.82 240Z" fill="black"/>
<path d="M774.83 149.86C794.292 149.86 810.07 134.082 810.07 114.62C810.07 95.1574 794.292 79.3799 774.83 79.3799C755.367 79.3799 739.59 95.1574 739.59 114.62C739.59 134.082 755.367 149.86 774.83 149.86Z" fill="#BE7C5E"/>
<path d="M757.5 133.12C757.5 133.12 788.63 161.31 771.01 190.12C753.39 218.93 814.47 170.74 814.47 170.74C814.47 170.74 793.33 135.47 798 114.33L757.5 133.12Z" fill="#BE7C5E"/>
<path opacity="0.1" d="M781 162.52C781 162.52 772.78 175.44 761.62 178.96L739.3 204.77C739.3 204.77 720.51 221.21 731.67 242.35C742.83 263.49 749.29 315.76 749.29 315.76C749.29 315.76 804.49 315.76 817.41 322.76C817.41 322.76 806.25 271.67 821.52 235.84C836.79 200.01 809.77 150.69 809.77 150.69L781 162.52Z" fill="black"/>
<path d="M781 161.31C781 161.31 772.78 174.23 761.62 177.75L739.3 203.59C739.3 203.59 720.51 220.03 731.67 241.17C742.83 262.31 749.29 314.58 749.29 314.58C749.29 314.58 804.49 314.58 817.41 321.58C817.41 321.58 806.25 270.49 821.52 234.66C836.79 198.83 809.77 149.52 809.77 149.52L781 161.31Z" fill="#FF748E"/>
<path d="M803.9 220.04C803.9 220.04 763.38 304.04 754.57 309.3C745.76 314.56 678.81 321.63 678.81 321.63C678.81 321.63 637.7 329.26 648.81 315.17C659.92 301.08 683.46 304.6 683.46 304.6L739.25 294.03L771.55 203.03L803.9 220.04Z" fill="#BE7C5E"/>
<path opacity="0.1" d="M785.69 180.1C785.69 180.1 753.39 199.48 759.85 217.1C759.85 217.1 796.85 211.81 809.77 236.48C809.77 236.48 830.32 213.58 814.47 188.91C814.47 188.91 805.66 173.05 785.69 180.1Z" fill="black"/>
<path d="M785.69 178.93C785.69 178.93 753.39 198.31 759.85 215.93C759.85 215.93 796.85 210.64 809.77 235.31C809.77 235.31 830.32 212.41 814.47 187.74C814.47 187.74 805.66 171.88 785.69 178.93Z" fill="#FF748E"/>
<path opacity="0.1" d="M758.91 110.97C759.434 110.945 759.958 111.027 760.45 111.209C760.942 111.392 761.392 111.672 761.774 112.032C762.156 112.392 762.461 112.825 762.672 113.306C762.882 113.787 762.994 114.305 763 114.83L767.4 131.69C769.49 139.69 771.6 147.83 771.6 156.11C771.6 180.61 752.86 201.74 731.16 213.11L753.36 218.94C755.528 219.666 757.82 219.952 760.1 219.78C761.982 219.419 763.771 218.681 765.36 217.61C774.8 211.83 781.57 202.41 786.04 192.28C790.51 182.15 792.89 171.28 795.25 160.44C802.573 173.435 807.074 187.828 808.46 202.68C809.95 218.81 807.84 235.74 814.07 250.68C817.16 258.09 823.07 265.15 831.07 266.14C834.625 244.84 836.74 223.324 837.4 201.74C837.55 196.96 837.61 192.12 836.48 187.47C835.48 183.37 833.58 179.56 832.21 175.57C826.89 160.02 830.01 143.02 832.64 126.8C835.27 110.58 837.15 93.0996 829.76 78.4196C825.5 69.9596 817.53 62.7196 808.08 62.0796C799.08 61.4796 790.81 66.7496 781.93 68.1596C773.05 69.5696 764.22 67.1596 755.37 67.7896C746.913 68.4518 738.907 71.8699 732.58 77.5196C727.72 81.8596 723.87 87.8296 723.8 94.3396C723.6 111.82 747.08 109.62 758.91 110.97Z" fill="#333333"/>
<path d="M758.91 109.8C759.434 109.776 759.958 109.858 760.45 110.04C760.942 110.223 761.392 110.502 761.774 110.863C762.155 111.223 762.461 111.656 762.671 112.137C762.882 112.618 762.994 113.136 763 113.66L767.4 130.52C769.49 138.52 771.6 146.66 771.6 154.94C771.6 179.44 752.86 200.57 731.16 211.94L753.36 217.77C755.528 218.497 757.82 218.783 760.1 218.61C761.982 218.25 763.771 217.512 765.36 216.44C774.8 210.66 781.57 201.24 786.04 191.11C790.51 180.98 792.89 170.11 795.25 159.27C802.578 172.268 807.082 186.664 808.47 201.52C809.96 217.65 807.85 234.58 814.08 249.52C817.17 256.93 823.08 263.99 831.08 264.98C834.635 243.68 836.75 222.165 837.41 200.58C837.56 195.8 837.62 190.96 836.49 186.31C835.49 182.21 833.59 178.4 832.22 174.41C826.9 158.86 830.02 141.86 832.65 125.64C835.28 109.42 837.16 91.9404 829.77 77.2604C825.51 68.8004 817.54 61.5604 808.09 60.9204C799.09 60.3204 790.82 65.5904 781.94 67.0004C773.06 68.4104 764.23 66.0004 755.38 66.6304C746.94 67.2745 738.942 70.6637 732.61 76.2804C727.75 80.6204 723.9 86.5904 723.83 93.1004C723.6 110.65 747.08 108.45 758.91 109.8Z" fill="#333333"/>
</g>
<defs>
<linearGradient id="paint0_linear" x1="443.09" y1="141.41" x2="443.09" y2="92.3301" gradientUnits="userSpaceOnUse">
<stop stop-color="#808080" stop-opacity="0.25"/>
<stop offset="0.54" stop-color="#808080" stop-opacity="0.12"/>
<stop offset="1" stop-color="#808080" stop-opacity="0.1"/>
</linearGradient>
<linearGradient id="paint1_linear" x1="26462.1" y1="9153.94" x2="26462.1" y2="6744.12" gradientUnits="userSpaceOnUse">
<stop stop-color="#808080" stop-opacity="0.25"/>
<stop offset="0.54" stop-color="#808080" stop-opacity="0.12"/>
<stop offset="1" stop-color="#808080" stop-opacity="0.1"/>
</linearGradient>
<linearGradient id="paint2_linear" x1="30439.9" y1="6456.11" x2="30439.9" y2="4046.77" gradientUnits="userSpaceOnUse">
<stop stop-color="#808080" stop-opacity="0.25"/>
<stop offset="0.54" stop-color="#808080" stop-opacity="0.12"/>
<stop offset="1" stop-color="#808080" stop-opacity="0.1"/>
</linearGradient>
<linearGradient id="paint3_linear" x1="26406.8" y1="2420.35" x2="26406.8" y2="10.5188" gradientUnits="userSpaceOnUse">
<stop stop-color="#808080" stop-opacity="0.25"/>
<stop offset="0.54" stop-color="#808080" stop-opacity="0.12"/>
<stop offset="1" stop-color="#808080" stop-opacity="0.1"/>
</linearGradient>
<linearGradient id="paint4_linear" x1="22440.4" y1="2409.83" x2="22440.4" y2="0" gradientUnits="userSpaceOnUse">
<stop stop-color="#808080" stop-opacity="0.25"/>
<stop offset="0.54" stop-color="#808080" stop-opacity="0.12"/>
<stop offset="1" stop-color="#808080" stop-opacity="0.1"/>
</linearGradient>
<linearGradient id="paint5_linear" x1="18860.1" y1="4529.15" x2="18860.1" y2="2119.81" gradientUnits="userSpaceOnUse">
<stop stop-color="#808080" stop-opacity="0.25"/>
<stop offset="0.54" stop-color="#808080" stop-opacity="0.12"/>
<stop offset="1" stop-color="#808080" stop-opacity="0.1"/>
</linearGradient>
<linearGradient id="paint6_linear" x1="87565.1" y1="379968" x2="87565.1" y2="108507" gradientUnits="userSpaceOnUse">
<stop stop-color="#808080" stop-opacity="0.25"/>
<stop offset="0.54" stop-color="#808080" stop-opacity="0.12"/>
<stop offset="1" stop-color="#808080" stop-opacity="0.1"/>
</linearGradient>
<linearGradient id="paint7_linear" x1="256603" y1="372587" x2="256603" y2="112528" gradientUnits="userSpaceOnUse">
<stop stop-color="#808080" stop-opacity="0.25"/>
<stop offset="0.54" stop-color="#808080" stop-opacity="0.12"/>
<stop offset="1" stop-color="#808080" stop-opacity="0.1"/>
</linearGradient>
<clipPath id="clip0">
<rect width="924" height="561.04" fill="white"/>
</clipPath>
</defs>
</svg>
