<svg width="76" height="94" viewBox="0 0 76 94" fill="none" xmlns="http://www.w3.org/2000/svg">
<g clip-path="url(#clip0)">
<g clip-path="url(#clip1)">
<path d="M82.0109 84.4979H101.978V9.9834H82.0109V84.4979ZM0 9.9834L37.1364 84.6361L48.3636 62.4234L22.3855 9.9834H0ZM146.542 9.9834C139.135 9.9834 131.895 12.1796 125.737 16.2944C119.579 20.4092 114.779 26.2576 111.945 33.1002C109.111 39.9428 108.369 47.4722 109.814 54.7363C111.259 62.0003 114.826 68.6728 120.063 73.9099C125.3 79.147 131.972 82.7135 139.236 84.1584C146.5 85.6033 154.03 84.8617 160.872 82.0274C167.715 79.1931 173.563 74.3934 177.678 68.2353C181.793 62.0771 183.989 54.837 183.989 47.4307C183.989 42.513 183.02 37.6435 181.139 33.1002C179.257 28.5569 176.498 24.4287 173.021 20.9514C169.544 17.4741 165.416 14.7158 160.872 12.8339C156.329 10.952 151.459 9.9834 146.542 9.9834V9.9834ZM146.542 64.9107C143.076 64.9518 139.676 63.9616 136.775 62.066C133.873 60.1705 131.6 57.4551 130.245 54.2648C128.891 51.0746 128.515 47.5537 129.166 44.1493C129.816 40.745 131.465 37.611 133.901 35.1456C136.337 32.6802 139.451 30.9947 142.847 30.3033C146.244 29.6118 149.769 29.9457 152.975 31.2624C156.181 32.5791 158.924 34.8192 160.854 37.6981C162.784 40.577 163.814 43.9647 163.815 47.4307C163.815 52.031 162.002 56.4459 158.768 59.7182C155.535 62.9904 151.142 64.8561 146.542 64.9107V64.9107Z" fill="#00A1AB"/>
<path d="M243.304 9.98357V58.3472C241.278 61.0588 238.681 63.2909 235.696 64.8851C232.71 66.4792 229.411 67.3962 226.031 67.5708C223.942 67.6316 221.864 67.2541 219.93 66.4628C217.997 65.6715 216.25 64.4838 214.804 62.9763C211.941 59.3661 210.614 54.7751 211.107 50.1945V9.98357H191.071V49.469C190.558 58.3047 193.23 67.0312 198.602 74.0654C201.672 77.8221 205.541 80.8473 209.927 82.9209C214.313 84.9945 219.106 86.0643 223.958 86.0527C231.376 86.145 238.561 83.4586 244.098 78.5217V84.4981H263.305V9.98357H243.304ZM273.842 31.6436C273.842 55.6181 309.976 51.6108 309.976 62.7345C309.976 66.5345 305.796 69.0908 300.545 69.0908C293.064 69.1471 285.81 66.5248 280.094 61.6981L270.318 75.9999C279.007 82.3872 289.485 85.8798 300.269 85.9836C315.953 85.9836 329.944 77.209 329.944 62.9417C329.944 37.1017 293.809 40.9363 293.809 31.2636C293.809 27.429 298.438 25.2872 303.965 25.2872C309.138 25.4545 314.133 27.2161 318.267 30.3308L327.629 15.8908C320.14 10.9962 311.392 8.38012 302.445 8.35993C287.694 8.35993 273.842 17.2727 273.842 31.5745V31.6436ZM337.025 -24.1819H356.993V84.4981H337.025V-24.1819ZM428.018 9.98357L407.913 54.6854L386.08 9.98357H364.109L397.445 77.0017L376.856 121.393H397.756L449.091 9.98357H428.018ZM30.3308 9.98357H74.929L52.3708 54.5127L30.3308 9.98357Z" fill="#00A1AB"/>
</g>
</g>
<defs>
<clipPath id="clip0">
<rect width="76" height="93.2727" fill="white"/>
</clipPath>
<clipPath id="clip1">
<rect width="449.091" height="145.575" fill="white" transform="translate(0 -24.1819)"/>
</clipPath>
</defs>
</svg>
