<svg width="70" height="70" viewBox="0 0 70 70" fill="none" xmlns="http://www.w3.org/2000/svg">
<path fill-rule="evenodd" clip-rule="evenodd" d="M40.3595 27.7812H46.5392V34.0703H49.6564C51.0782 34.0703 52.5548 33.7969 53.922 33.3594C54.5782 33.1406 55.3439 32.8125 56.0001 32.4297C55.1251 31.2812 54.6876 29.8594 54.5782 28.4375C54.4142 26.5234 54.797 24.0078 56.1095 22.5312L56.7657 21.7656L57.5314 22.3672C59.5001 23.9531 61.0861 26.0859 61.4142 28.6016C63.7657 27.8906 66.5001 28.0547 68.5782 29.2578L69.3986 29.75L68.9611 30.625C67.2111 34.0156 63.547 35.1094 59.9923 34.8906C54.6329 48.1797 43.0392 54.4687 28.9298 54.4687C21.6564 54.4687 14.9845 51.7344 11.1564 45.2812L11.1017 45.1719L10.5548 44.0234C9.2423 41.1797 8.85949 38.0625 9.13293 34.9453L9.2423 34.0156H14.4923V27.7812H20.672V21.6562H32.9767V15.4766H40.3595V27.7812Z" fill="#3A4D54"/>
<path d="M60.3749 30.1328C60.8124 26.9062 58.4061 24.3906 56.8749 23.1875C55.1796 25.1562 54.9061 30.4062 57.5858 32.5937C56.0546 33.9062 52.9374 35.1641 49.6561 35.1641H10.1718C9.84364 38.5547 10.4452 41.6719 11.8124 44.3516L12.2499 45.1719C12.5233 45.6641 12.8515 46.1016 13.1796 46.5937C14.8202 46.7031 16.2968 46.7578 17.6639 46.7031C20.3436 46.6484 22.5311 46.3203 24.2264 45.7734C24.4999 45.6641 24.7186 45.8281 24.828 46.0469C24.9374 46.3203 24.7733 46.5391 24.5546 46.6484C24.3358 46.7031 24.1171 46.8125 23.8436 46.8672C22.5311 47.25 21.1093 47.4687 19.3046 47.5781H18.9764C18.2655 47.6328 17.4999 47.6328 16.6796 47.6328C15.8046 47.6328 14.9843 47.6328 13.9999 47.5781C17.2811 51.2969 22.4218 53.4844 28.8749 53.4844C42.5468 53.4844 54.1405 47.4141 59.2264 33.8516C62.8905 34.2344 66.3905 33.3047 67.9764 30.1875C65.5155 28.7109 62.2342 29.2031 60.3749 30.1328Z" fill="#00AADA"/>
<path d="M60.375 30.1328C60.8125 26.9062 58.4062 24.3906 56.875 23.1875C55.1797 25.1562 54.9062 30.4062 57.5859 32.5937C56.0547 33.9062 52.9375 35.1641 49.6562 35.1641H12.4687C12.3047 40.3594 14.2187 44.2969 17.664 46.6484C20.3437 46.5937 22.5312 46.2656 24.2265 45.7187C24.5 45.6094 24.7187 45.7734 24.8281 45.9922C24.9375 46.2656 24.7734 46.4844 24.5547 46.5937C24.3359 46.6484 24.1172 46.7578 23.8437 46.8125C22.5312 47.1953 21 47.4687 19.1953 47.5781L19.1406 47.5234C23.789 49.9297 30.5156 49.875 38.2812 46.9219C46.9219 43.5859 55.0156 37.2422 60.6484 30.0234C60.539 30.0781 60.4297 30.0781 60.375 30.1328Z" fill="#28B8EB"/>
<path d="M10.2266 39.2656C10.4453 41.0703 10.9922 42.7656 11.8125 44.3516L12.25 45.1719C12.5234 45.6641 12.8516 46.1016 13.1797 46.5937C14.8203 46.7031 16.2969 46.7578 17.6641 46.7031C20.3437 46.6484 22.5312 46.3203 24.2266 45.7734C24.5 45.6641 24.7187 45.8281 24.8281 46.0469C24.9375 46.3203 24.7734 46.5391 24.5547 46.6484C24.3359 46.7031 24.1172 46.8125 23.8437 46.8672C22.5312 47.25 21 47.5234 19.1953 47.6328H18.9766C18.2656 47.6875 17.5 47.6875 16.7344 47.6875C15.8594 47.6875 14.9844 47.6875 14.0547 47.6328C17.3359 51.3516 22.5312 53.5391 28.9844 53.5391C40.6875 53.5391 50.8594 49.1094 56.7656 39.3203H10.2266V39.2656Z" fill="#028BB8"/>
<path d="M12.8516 39.2656C13.5625 42.4375 15.2031 44.9531 17.6641 46.6484C20.3437 46.5938 22.5312 46.2656 24.2266 45.7188C24.5 45.6094 24.7188 45.7734 24.8281 45.9922C24.9375 46.2656 24.7734 46.4844 24.5547 46.5938C24.3359 46.6484 24.1172 46.7578 23.8437 46.8125C22.5312 47.1953 21 47.4688 19.1406 47.5781C23.7891 49.9844 30.5156 49.9297 38.2266 46.9766C42.875 45.1719 47.4141 42.4922 51.4609 39.2656H12.8516Z" fill="#019BC6"/>
<path fill-rule="evenodd" clip-rule="evenodd" d="M15.5312 28.8203H20.8906V34.1797H15.5312V28.8203ZM15.9688 29.2578H16.4063V33.6875H15.9688V29.2578ZM16.7344 29.2578H17.1719V33.6875H16.7344V29.2578ZM17.5547 29.2578H17.9922V33.6875H17.5547V29.2578ZM18.375 29.2578H18.8125V33.6875H18.375V29.2578ZM19.1953 29.2578H19.6328V33.6875H19.1953V29.2578ZM20.0156 29.2578H20.4531V33.6875H20.0156V29.2578ZM21.6562 22.6953H27.0156V28.0547H21.6562V22.6953ZM22.1484 23.1328H22.5859V27.5625H22.1484V23.1328ZM22.9141 23.1328H23.3516V27.5625H22.9141V23.1328ZM23.7344 23.1328H24.1719V27.5625H23.7344V23.1328ZM24.5547 23.1328H24.9922V27.5625H24.5547V23.1328ZM25.3203 23.1328H25.7578V27.5625H25.3203V23.1328ZM26.1406 23.1328H26.5781V27.5625H26.1406V23.1328Z" fill="#00ACD3"/>
<path fill-rule="evenodd" clip-rule="evenodd" d="M21.6562 28.8203H27.0156V34.1797H21.6562V28.8203ZM22.1484 29.2578H22.5859V33.6875H22.1484V29.2578ZM22.9141 29.2578H23.3516V33.6875H22.9141V29.2578ZM23.7344 29.2578H24.1719V33.6875H23.7344V29.2578ZM24.5547 29.2578H24.9922V33.6875H24.5547V29.2578ZM25.3203 29.2578H25.7578V33.6875H25.3203V29.2578ZM26.1406 29.2578H26.5781V33.6875H26.1406V29.2578Z" fill="#23C2EE"/>
<path fill-rule="evenodd" clip-rule="evenodd" d="M27.8359 28.8203H33.1953V34.1797H27.8359V28.8203ZM28.2734 29.2578H28.7109V33.6875H28.2734V29.2578ZM29.0937 29.2578H29.5312V33.6875H29.0937V29.2578ZM29.9141 29.2578H30.3516V33.6875H29.9141V29.2578ZM30.6797 29.2578H31.1172V33.6875H30.6797V29.2578ZM31.5 29.2578H31.9375V33.6875H31.5V29.2578ZM32.3203 29.2578H32.7578V33.6875H32.3203V29.2578Z" fill="#00ACD3"/>
<path fill-rule="evenodd" clip-rule="evenodd" d="M27.8359 22.6953H33.1953V28.0547H27.8359V22.6953ZM28.2734 23.1328H28.7109V27.5625H28.2734V23.1328ZM29.0937 23.1328H29.5312V27.5625H29.0937V23.1328ZM29.9141 23.1328H30.3516V27.5625H29.9141V23.1328ZM30.6797 23.1328H31.1172V27.5625H30.6797V23.1328ZM31.5 23.1328H31.9375V27.5625H31.5V23.1328ZM32.3203 23.1328H32.7578V27.5625H32.3203V23.1328ZM34.0156 28.8203H39.375V34.1797H34.0156V28.8203ZM34.4531 29.2578H34.8906V33.6875H34.4531V29.2578ZM35.2734 29.2578H35.7109V33.6875H35.2734V29.2578ZM36.0391 29.2578H36.4766V33.6875H36.0391V29.2578ZM36.8594 29.2578H37.2969V33.6875H36.8594V29.2578ZM37.6797 29.2578H38.1172V33.6875H37.6797V29.2578ZM38.5 29.2578H38.9375V33.6875H38.5V29.2578Z" fill="#23C2EE"/>
<path fill-rule="evenodd" clip-rule="evenodd" d="M34.0156 22.6953H39.375V28.0547H34.0156V22.6953ZM34.4531 23.1328H34.8906V27.5625H34.4531V23.1328ZM35.2734 23.1328H35.7109V27.5625H35.2734V23.1328ZM36.0391 23.1328H36.4766V27.5625H36.0391V23.1328ZM36.8594 23.1328H37.2969V27.5625H36.8594V23.1328ZM37.6797 23.1328H38.1172V27.5625H37.6797V23.1328ZM38.5 23.1328H38.9375V27.5625H38.5V23.1328Z" fill="#00ACD3"/>
<path fill-rule="evenodd" clip-rule="evenodd" d="M34.0156 16.5156H39.375V21.875H34.0156V16.5156ZM34.4531 16.9531H34.8906V21.3828H34.4531V16.9531ZM35.2734 16.9531H35.7109V21.3828H35.2734V16.9531ZM36.0391 16.9531H36.4766V21.3828H36.0391V16.9531ZM36.8594 16.9531H37.2969V21.3828H36.8594V16.9531ZM37.6797 16.9531H38.1172V21.3828H37.6797V16.9531ZM38.5 16.9531H38.9375V21.3828H38.5V16.9531Z" fill="#23C2EE"/>
<path fill-rule="evenodd" clip-rule="evenodd" d="M40.1953 28.8203H45.5547V34.1797H40.1953V28.8203ZM40.6328 29.2578H41.0703V33.6875H40.6328V29.2578ZM41.3984 29.2578H41.8359V33.6875H41.3984V29.2578ZM42.2187 29.2578H42.6562V33.6875H42.2187V29.2578ZM43.0391 29.2578H43.4766V33.6875H43.0391V29.2578ZM43.8594 29.2578H44.2969V33.6875H43.8594V29.2578ZM44.6797 29.2578H45.1172V33.6875H44.6797V29.2578Z" fill="#00ACD3"/>
<path fill-rule="evenodd" clip-rule="evenodd" d="M26.6875 42.8203C27.5078 42.8203 28.1641 43.4766 28.1641 44.2969C28.1641 45.1172 27.5078 45.7734 26.6875 45.7734C25.8672 45.7734 25.2109 45.1172 25.2109 44.2969C25.2109 43.4766 25.8672 42.8203 26.6875 42.8203Z" fill="#D4EEF1"/>
<path fill-rule="evenodd" clip-rule="evenodd" d="M26.6875 43.2578C26.7969 43.2578 26.9609 43.2578 27.0703 43.3125C26.9609 43.3672 26.8516 43.5312 26.8516 43.6953C26.8516 43.9141 27.0703 44.1328 27.2891 44.1328C27.4531 44.1328 27.6172 44.0234 27.6719 43.9141C27.7266 44.0234 27.7266 44.1875 27.7266 44.2969C27.7266 44.8984 27.2344 45.3359 26.6875 45.3359C26.0859 45.3359 25.6484 44.8437 25.6484 44.2969C25.6484 43.75 26.0859 43.2578 26.6875 43.2578ZM0.601562 39.8125H69.1797C67.7031 39.4297 64.4766 38.9375 64.9688 36.9688C62.2344 40.0859 55.7266 39.1563 54.0313 37.625C52.1719 40.3047 41.4531 39.2656 40.7422 37.1875C38.4453 39.9219 31.2813 39.9219 28.9844 37.1875C28.2188 39.2656 17.5 40.3047 15.6953 37.625C14.0547 39.1563 7.49219 40.0859 4.75781 36.9688C5.35938 38.8828 2.07813 39.4297 0.601562 39.8125Z" fill="#3A4D54"/>
<path d="M30.625 53.4844C26.9609 51.7344 24.9922 49.3828 23.8438 46.8125C22.4766 47.1953 20.8359 47.4688 18.9766 47.5781C18.2656 47.6328 17.5 47.6328 16.7344 47.6328C15.8047 47.6328 14.875 47.6328 13.8906 47.5781C17.1719 50.8594 21.3281 53.4297 28.9297 53.4844H30.625Z" fill="#BFDBE0"/>
<path d="M25.2109 49.1641C24.7187 48.4531 24.2266 47.6328 23.8437 46.8125C22.4766 47.1953 20.8359 47.4687 18.9766 47.5781C20.2344 48.2344 22.0937 48.8906 25.2109 49.1641Z" fill="#D4EEF1"/>
</svg>
