<svg width="59" height="66" viewBox="0 0 59 66" fill="none" xmlns="http://www.w3.org/2000/svg">
<path d="M55.7825 14.605L32.0192 0.806704C30.5205 -0.0468961 28.5692 -0.0468961 27.0587 0.806704L3.04149 14.605C1.49487 15.4947 0.400391 17.1668 0.400391 18.9554V46.5153C0.400391 48.3038 1.52344 49.9765 3.07005 50.8711L9.41546 54.4752C12.4483 55.969 13.5202 55.969 14.9003 55.969C19.3908 55.969 21.9559 53.2535 21.9559 48.5172V21.3087C21.9559 20.9245 21.756 20.3527 21.3788 20.3527H18.3486C17.9649 20.3527 17.1059 20.9245 17.1059 21.3082V48.5167C17.1059 50.6162 15.2069 52.7055 11.6578 50.9309L5.10112 47.1517C4.87263 47.0277 4.7115 46.7782 4.7115 46.5153V18.9554C4.7115 18.6957 5.01059 18.4348 5.24069 18.3017L29.1803 4.52719C29.4039 4.40055 29.7327 4.40055 29.9558 4.52719L53.6033 18.2985C53.8296 18.4348 53.7499 18.6876 53.7499 18.9554V46.5153C53.7499 46.7782 53.8485 47.0342 53.6248 47.1608L29.8674 60.9435C29.6637 61.0658 29.4109 61.0658 29.1878 60.9435L23.0946 57.3065C22.9109 57.1998 22.6926 57.1615 22.5164 57.2602C20.821 58.221 20.5085 58.3487 18.9182 58.9C18.527 59.0363 17.9498 59.2729 19.1392 59.9395L27.1137 64.657C27.8773 65.0988 28.7449 65.3284 29.6179 65.3284C30.5027 65.3284 31.3693 65.0988 32.1329 64.657L55.782 50.8711C57.3286 49.9701 58.0615 48.3038 58.0615 46.5153V18.9554C58.0615 17.1668 57.3286 15.499 55.7825 14.605ZM36.9963 42.1481C30.6773 42.1481 29.2854 40.4048 28.8214 37.2625C28.7675 36.9241 28.4803 36.5194 28.1359 36.5194H25.0476C24.6655 36.5194 24.3583 36.9829 24.3583 37.3633C24.3583 41.3867 26.5457 46.2614 36.9969 46.2614C44.5623 46.2614 48.8998 43.3218 48.8998 38.1194C48.8998 32.9611 45.4149 31.6074 38.0779 30.6364C30.6617 29.6561 29.9083 29.1609 29.9083 27.4235C29.9083 25.9911 30.5464 24.0808 36.0376 24.0808C40.9442 24.0808 42.7527 25.1338 43.4969 28.4409C43.5605 28.7519 43.8445 28.975 44.1652 28.975H47.2659C47.4567 28.975 47.6388 28.8979 47.7725 28.7616C47.9018 28.615 47.9703 28.4312 47.953 28.234C47.4729 22.539 43.6893 19.885 36.0371 19.885C29.2304 19.885 25.1699 22.7594 25.1699 27.5776C25.1699 32.8038 29.2099 34.248 35.744 34.8941C43.5605 35.6604 44.1684 36.8029 44.1684 38.3403C44.1684 41.0105 42.0247 42.1481 36.9963 42.1481Z" fill="#83CD29"/>
</svg>
